<svg width="23" height="23" viewBox="0 0 23 23" fill="none" xmlns="http://www.w3.org/2000/svg">
<path d="M20.4999 0.659225H1.91247C1.6729 0.648003 1.43345 0.684133 1.20785 0.76557C0.982256 0.847006 0.774941 0.972133 0.597755 1.13378C0.420583 1.29544 0.277021 1.49046 0.175313 1.70766C0.0736044 1.92488 0.0157257 2.16001 0.00500488 2.39962V21.0288C0.0190394 21.5302 0.224517 22.0073 0.579237 22.362C0.933957 22.7167 1.41102 22.9222 1.91247 22.9363H20.4999C20.9873 22.9146 21.4469 22.7027 21.7801 22.3461C22.1133 21.9895 22.2934 21.5167 22.282 21.0288V2.39962C22.2861 2.1664 22.2423 1.93485 22.1537 1.71912C22.065 1.50341 21.9331 1.30808 21.7662 1.14511C21.5994 0.982158 21.401 0.855012 21.1832 0.771459C20.9655 0.687907 20.7329 0.649715 20.4999 0.659225ZM6.96657 19.2327H3.72248V9.30554H6.96657V19.2327ZM5.42111 7.8018C5.19473 7.80969 4.96916 7.77068 4.75859 7.68722C4.548 7.60377 4.35695 7.47767 4.19744 7.31684C4.03793 7.15601 3.91338 6.96394 3.83165 6.75269C3.74991 6.54143 3.71275 6.31556 3.72248 6.08925C3.71247 5.86049 3.75039 5.63218 3.8338 5.41895C3.91721 5.2057 4.04427 5.01225 4.20683 4.85101C4.36939 4.68975 4.56386 4.56426 4.77776 4.48259C4.99167 4.4009 5.22029 4.36484 5.44895 4.3767C5.67533 4.36882 5.9009 4.40782 6.11147 4.49128C6.32206 4.57473 6.51311 4.70083 6.67262 4.86166C6.83213 5.02249 6.95668 5.21456 7.0384 5.42581C7.12015 5.63707 7.15731 5.86294 7.14758 6.08925C7.15759 6.31801 7.11967 6.54632 7.03626 6.75955C6.95285 6.9728 6.82578 7.16625 6.66323 7.32749C6.50067 7.48875 6.3062 7.61424 6.0923 7.69591C5.87838 7.7776 5.64977 7.81366 5.42111 7.8018ZM18.5785 19.2327H15.3205V13.8027C15.3205 12.5079 14.861 11.6168 13.7054 11.6168C13.3464 11.6198 12.9971 11.7339 12.7056 11.9433C12.4139 12.1527 12.1942 12.4472 12.0764 12.7863C11.9859 13.0406 11.948 13.3105 11.965 13.5799V19.2327H8.76266V9.30554H11.965V10.6979C12.2497 10.1748 12.6734 9.74063 13.1894 9.44324C13.7054 9.14598 14.2935 8.99711 14.8888 9.01311C16.9912 9.01311 18.5785 10.4055 18.5785 13.3711V19.2327Z" fill="#41574B"/>
</svg>
