<svg width="23" height="23" viewBox="0 0 23 23" fill="none" xmlns="http://www.w3.org/2000/svg">
<path d="M20.4999 0.576339H1.91247C1.6729 0.565117 1.43345 0.601248 1.20785 0.682684C0.982256 0.764121 0.774941 0.889247 0.597755 1.05089C0.420583 1.21256 0.277022 1.40758 0.175313 1.62478C0.0736044 1.84199 0.0157257 2.07713 0.00500488 2.31673V20.9459C0.0190394 21.4473 0.224517 21.9245 0.579237 22.2791C0.933957 22.6338 1.41102 22.8393 1.91247 22.8534H20.4999C20.9873 22.8317 21.4469 22.6198 21.7801 22.2632C22.1133 21.9066 22.2934 21.4338 22.282 20.9459V2.31673C22.2861 2.08352 22.2423 1.85196 22.1537 1.63624C22.065 1.42053 21.9331 1.2252 21.7662 1.06223C21.5994 0.899272 21.401 0.772126 21.1832 0.688574C20.9655 0.605021 20.7329 0.566829 20.4999 0.576339ZM6.96657 19.1499H3.72248V9.22265H6.96657V19.1499ZM5.42111 7.71891C5.19473 7.7268 4.96916 7.68779 4.75859 7.60434C4.548 7.52088 4.35695 7.39478 4.19744 7.23395C4.03793 7.07313 3.91338 6.88106 3.83165 6.6698C3.74991 6.45855 3.71275 6.23267 3.72248 6.00636C3.71247 5.77761 3.75039 5.54929 3.8338 5.33606C3.91721 5.12282 4.04427 4.92937 4.20683 4.76812C4.36939 4.60687 4.56386 4.48138 4.77776 4.3997C4.99167 4.31802 5.22029 4.28196 5.44895 4.29382C5.67533 4.28594 5.9009 4.32494 6.11147 4.40839C6.32206 4.49185 6.51311 4.61795 6.67262 4.77877C6.83213 4.9396 6.95668 5.13167 7.0384 5.34293C7.12015 5.55418 7.15731 5.78006 7.14758 6.00636C7.15759 6.23512 7.11967 6.46343 7.03626 6.67667C6.95285 6.88991 6.82578 7.08336 6.66323 7.24461C6.50066 7.40586 6.3062 7.53135 6.0923 7.61302C5.87838 7.69471 5.64977 7.73077 5.42111 7.71891ZM18.5785 19.1499H15.3205V13.7198C15.3205 12.425 14.861 11.5339 13.7054 11.5339C13.3464 11.537 12.9971 11.651 12.7056 11.8604C12.4139 12.0698 12.1942 12.3643 12.0764 12.7034C11.9859 12.9577 11.948 13.2276 11.965 13.4971V19.1499H8.76266V9.22265H11.965V10.615C12.2497 10.0919 12.6734 9.65775 13.1894 9.36035C13.7054 9.06309 14.2935 8.91423 14.8888 8.93022C16.9912 8.93022 18.5785 10.3226 18.5785 13.2882V19.1499Z" fill="#A1BD71"/>
</svg>
