<svg width="24" height="24" viewBox="0 0 24 24" fill="none" xmlns="http://www.w3.org/2000/svg">
<path d="M15.3638 11.8035C15.3638 12.5184 15.1518 13.2174 14.7545 13.8119C14.3573 14.4063 13.7927 14.8697 13.1322 15.1433C12.4716 15.4169 11.7448 15.4885 11.0435 15.349C10.3423 15.2095 9.69815 14.8652 9.19258 14.3597C8.68701 13.8541 8.34272 13.21 8.20323 12.5087C8.06375 11.8075 8.13533 11.0806 8.40895 10.4201C8.68256 9.75951 9.1459 9.19492 9.74039 8.7977C10.3349 8.40047 11.0338 8.18846 11.7488 8.18846C12.7075 8.18846 13.627 8.56932 14.305 9.24727C14.9829 9.92521 15.3638 10.8447 15.3638 11.8035ZM23.4976 6.38095V17.226C23.4958 18.9033 22.8287 20.5113 21.6427 21.6973C20.4566 22.8834 18.8486 23.5505 17.1713 23.5522H6.32627C4.64899 23.5505 3.04092 22.8834 1.8549 21.6973C0.668886 20.5113 0.0017942 18.9033 0 17.226V6.38095C0.0017942 4.70367 0.668886 3.09561 1.8549 1.90959C3.04092 0.723573 4.64899 0.0564817 6.32627 0.0546875H17.1713C18.8486 0.0564817 20.4566 0.723573 21.6427 1.90959C22.8287 3.09561 23.4958 4.70367 23.4976 6.38095ZM17.1713 11.8035C17.1713 10.731 16.8533 9.68261 16.2574 8.79088C15.6616 7.89915 14.8147 7.20414 13.8239 6.79372C12.8331 6.3833 11.7428 6.27592 10.6909 6.48515C9.63904 6.69437 8.67284 7.21082 7.91448 7.96917C7.15613 8.72752 6.63969 9.69372 6.43046 10.7456C6.22123 11.7975 6.32861 12.8877 6.73903 13.8786C7.14945 14.8694 7.84446 15.7163 8.73619 16.3121C9.62792 16.908 10.6763 17.226 11.7488 17.226C13.1865 17.2245 14.5648 16.6527 15.5814 15.6361C16.598 14.6195 17.1698 13.2411 17.1713 11.8035ZM19.8825 5.02532C19.8825 4.75721 19.803 4.49511 19.6541 4.27218C19.5051 4.04925 19.2934 3.87549 19.0457 3.77289C18.798 3.67028 18.5254 3.64344 18.2625 3.69574C17.9995 3.74805 17.7579 3.87716 17.5683 4.06675C17.3788 4.25634 17.2496 4.49789 17.1973 4.76085C17.145 5.02382 17.1719 5.29639 17.2745 5.5441C17.3771 5.79181 17.5508 6.00353 17.7738 6.15249C17.9967 6.30145 18.2588 6.38095 18.5269 6.38095C18.8865 6.38095 19.2313 6.23813 19.4855 5.9839C19.7397 5.72967 19.8825 5.38486 19.8825 5.02532Z" fill="#41574B"/>
</svg>
