<svg width="23" height="23" viewBox="0 0 23 23" fill="none" xmlns="http://www.w3.org/2000/svg">
<path d="M22.8591 11.7855C22.833 9.66289 22.2009 7.59195 21.0372 5.81655C19.8735 4.04116 18.2268 2.63524 16.291 1.76439C14.3549 0.893542 12.2105 0.594027 10.1101 0.901102C8.00966 1.20819 6.0407 2.10907 4.43513 3.4977C2.82954 4.88631 1.65419 6.70481 1.04749 8.73902C0.440803 10.7733 0.428021 12.9384 1.01068 14.9797C1.59333 17.021 2.74714 18.8531 4.33623 20.2606C5.92531 21.6681 7.8835 22.5922 9.98016 22.924V15.0296H7.19554V11.7855H9.98016V9.32108C9.91569 8.74808 9.97779 8.16789 10.1621 7.62149C10.3465 7.07509 10.6485 6.57581 11.0468 6.15888C11.4452 5.74194 11.9301 5.41752 12.4675 5.20852C13.005 4.9995 13.5818 4.91099 14.1571 4.94925C14.9922 4.96068 15.8254 5.03516 16.6493 5.17202V7.95665H15.257C15.017 7.92637 14.7731 7.95043 14.5436 8.02705C14.314 8.10367 14.1046 8.23088 13.9308 8.3993C13.7571 8.56771 13.6234 8.77302 13.5397 9.00001C13.4559 9.2271 13.4243 9.47006 13.447 9.71093V11.8133H16.538L16.0367 15.0574H13.4609V22.8544C16.0923 22.4382 18.4873 21.0927 20.2116 19.0618C21.9358 17.031 22.8751 14.4495 22.8591 11.7855Z" fill="#A1BD71"/>
</svg>
