<svg width="23" height="23" viewBox="0 0 23 23" fill="none" xmlns="http://www.w3.org/2000/svg">
<path d="M22.8591 11.8682C22.833 9.74566 22.2009 7.67471 21.0372 5.89932C19.8735 4.12392 18.2268 2.71801 16.291 1.84716C14.3549 0.976305 12.2105 0.676791 10.1101 0.983866C8.00966 1.29095 6.0407 2.19184 4.43513 3.58046C2.82954 4.96907 1.65419 6.78757 1.04749 8.82178C0.440803 10.856 0.428021 13.0212 1.01068 15.0625C1.59333 17.1038 2.74714 18.9359 4.33623 20.3434C5.92531 21.7509 7.8835 22.675 9.98016 23.0067V15.1123H7.19554V11.8682H9.98016V9.40384C9.91569 8.83085 9.97779 8.25066 10.1621 7.70426C10.3465 7.15786 10.6485 6.65857 11.0468 6.24165C11.4452 5.8247 11.9301 5.50028 12.4675 5.29128C13.005 5.08227 13.5818 4.99376 14.1571 5.03202C14.9922 5.04345 15.8254 5.11792 16.6493 5.25479V8.03942H15.257C15.017 8.00913 14.7731 8.03319 14.5436 8.10981C14.314 8.18643 14.1046 8.31365 13.9308 8.48206C13.7571 8.65048 13.6234 8.85579 13.5397 9.08277C13.4559 9.30986 13.4243 9.55282 13.447 9.79369V11.8961H16.538L16.0367 15.1402H13.4609V22.9371C16.0923 22.521 18.4873 21.1754 20.2116 19.1446C21.9358 17.1138 22.8751 14.5323 22.8591 11.8682Z" fill="#41574B"/>
</svg>
