<svg width="24" height="25" viewBox="0 0 24 25" fill="none" xmlns="http://www.w3.org/2000/svg">
<path d="M15.3638 12.7207C15.3638 13.4357 15.1518 14.1346 14.7545 14.7291C14.3573 15.3236 13.7927 15.7869 13.1322 16.0605C12.4716 16.3341 11.7448 16.4057 11.0435 16.2663C10.3423 16.1268 9.69815 15.7825 9.19258 15.2769C8.68701 14.7713 8.34272 14.1272 8.20323 13.426C8.06375 12.7247 8.13533 11.9979 8.40895 11.3373C8.68256 10.6767 9.1459 10.1122 9.74039 9.71493C10.3349 9.31771 11.0338 9.10569 11.7488 9.10569C12.7075 9.10569 13.627 9.48656 14.305 10.1645C14.9829 10.8425 15.3638 11.7619 15.3638 12.7207ZM23.4976 7.29819V18.1432C23.4958 19.8205 22.8287 21.4286 21.6427 22.6146C20.4566 23.8006 18.8486 24.4677 17.1713 24.4695H6.32627C4.64899 24.4677 3.04092 23.8006 1.8549 22.6146C0.668886 21.4286 0.0017942 19.8205 0 18.1432V7.29819C0.0017942 5.62091 0.668886 4.01284 1.8549 2.82683C3.04092 1.64081 4.64899 0.973718 6.32627 0.971924H17.1713C18.8486 0.973718 20.4566 1.64081 21.6427 2.82683C22.8287 4.01284 23.4958 5.62091 23.4976 7.29819ZM17.1713 12.7207C17.1713 11.6482 16.8533 10.5998 16.2574 9.70812C15.6616 8.81639 14.8147 8.12137 13.8239 7.71095C12.8331 7.30054 11.7428 7.19315 10.6909 7.40238C9.63904 7.61161 8.67284 8.12806 7.91448 8.88641C7.15613 9.64476 6.63969 10.611 6.43046 11.6628C6.22123 12.7147 6.32861 13.805 6.73903 14.7958C7.14945 15.7866 7.84446 16.6335 8.73619 17.2294C9.62792 17.8252 10.6763 18.1432 11.7488 18.1432C13.1865 18.1417 14.5648 17.5699 15.5814 16.5533C16.598 15.5368 17.1698 14.1584 17.1713 12.7207ZM19.8825 5.94256C19.8825 5.67444 19.803 5.41235 19.6541 5.18941C19.5051 4.96648 19.2934 4.79273 19.0457 4.69012C18.798 4.58752 18.5254 4.56067 18.2625 4.61298C17.9995 4.66529 17.7579 4.7944 17.5683 4.98399C17.3788 5.17358 17.2496 5.41512 17.1973 5.67809C17.145 5.94106 17.1719 6.21363 17.2745 6.46134C17.3771 6.70905 17.5508 6.92077 17.7738 7.06973C17.9967 7.21868 18.2588 7.29819 18.5269 7.29819C18.8865 7.29819 19.2313 7.15537 19.4855 6.90114C19.7397 6.64691 19.8825 6.3021 19.8825 5.94256Z" fill="#A1BD71"/>
</svg>
