<svg width="36" height="36" viewBox="0 0 36 36" fill="none" xmlns="http://www.w3.org/2000/svg">
<path d="M35.1157 22.1983L30.7947 29.7986C29.9478 31.3081 28.3749 32.098 26.7848 31.9926H23.328V35.5032L19.007 27.6045L23.328 19.7058V23.2163H28.2021L24.365 16.4585L31.849 12.0704L34.9602 17.5468C35.8589 18.8984 35.9799 20.7063 35.1157 22.1983ZM13.3205 0.503174H21.9625C23.6564 0.503174 25.1255 1.50368 25.8342 2.94299L27.5626 5.99716L30.5527 4.24189L25.9897 11.9826L17.0884 12.1406L20.0786 10.3853L17.6415 6.08492L13.8217 12.8427L6.32045 8.45453L9.43159 2.9781C10.1402 1.52123 11.6094 0.503174 13.3205 0.503174ZM6.13033 29.8161L1.80931 22.2158C0.962386 20.7238 1.08338 18.9335 1.96486 17.5819L3.69327 14.5453L0.703125 12.79L9.58714 12.9305L14.1674 20.6887L11.1773 18.9335L8.74022 23.2163H16.4144V31.9926H10.1921C9.38234 32.0522 8.57239 31.8797 7.85435 31.495C7.13631 31.1102 6.539 30.5285 6.13033 29.8161Z" fill="#A1BD71"/>
</svg>
