<svg width="32" height="32" viewBox="0 0 32 32" fill="none" xmlns="http://www.w3.org/2000/svg">
<path d="M23.3422 15.3441C24.2765 16.0296 24.9772 16.8471 25.419 17.8525C26.5463 20.4472 26.5462 23.0419 25.155 25.5249C24.0734 27.4595 22.2353 28.4141 20.1281 28.7238C18.5946 28.9523 17.0205 28.9472 15.4617 28.9726C13.1412 29.0081 10.8257 28.9828 8.50523 28.9777C7.02255 28.9726 5.76836 27.754 5.76836 26.2713C5.7582 20.3507 5.7582 14.4301 5.76836 8.50953C5.76836 7.59555 5.76328 6.68664 5.76836 5.77266C5.78359 4.24427 6.96161 3.02055 8.49 3.0104C11.5011 2.99516 14.5172 2.99516 17.5334 3.02055C18.8079 3.02563 20.062 3.29982 21.2248 3.82283C23.7078 4.95007 24.9417 6.92529 25.1448 9.59615C25.3124 11.7237 24.7792 13.638 23.3422 15.3441ZM11.364 24.3062C11.5061 24.3214 11.6128 24.3367 11.7143 24.3367C13.522 24.3367 15.3296 24.3519 17.1373 24.3265C17.64 24.3164 18.1528 24.2148 18.6403 24.0929C19.2953 23.9254 19.8183 23.5446 20.123 22.9251C21.037 21.092 20.0468 19.1067 18.031 18.9086C16.467 18.7563 14.8879 18.8122 13.3138 18.7868C12.6689 18.7766 12.0291 18.7868 11.364 18.7868V24.3062ZM11.369 13.1861C11.5518 13.1962 11.7042 13.2064 11.8565 13.2064C13.3087 13.2064 14.7609 13.2165 16.2132 13.2013C16.66 13.2013 17.1068 13.1607 17.5486 13.0845C18.5489 12.8967 19.3766 12.4244 19.6304 11.3581C20.0214 9.7231 19.6051 7.94591 17.3049 7.75803C15.3703 7.60062 13.4154 7.68694 11.4706 7.66663C11.4452 7.66663 11.4198 7.6971 11.369 7.72757V13.1861Z" fill="#A1BD71"/>
</svg>
