<svg width="32" height="32" viewBox="0 0 32 32" fill="none" xmlns="http://www.w3.org/2000/svg">
<path d="M3.28581 21.3333H4.57152C5.1238 21.3333 5.57152 21.781 5.57152 22.3333V27.43C5.5639 29.2815 5.98904 29.7142 7.85723 29.7142H23.8572C25.7254 29.7142 26.1429 29.3698 26.1429 27.43V22.3333C26.1429 21.781 26.5907 21.3333 27.1429 21.3333H28.4287C30.3715 21.3637 30.7365 20.9317 30.7144 19.0491V10.6681C30.7144 8.87764 30.4249 8.38088 28.4287 8.38088H27.1429C26.5907 8.38088 26.1429 7.93317 26.1429 7.38088V4.57288C26.165 2.69098 25.8001 2.28564 23.8572 2.28564H7.85723C6.02866 2.28564 5.5639 2.72145 5.57152 4.57288V7.38088C5.57152 7.93317 5.1238 8.38088 4.57152 8.38088H3.28581C1.32009 8.38088 1.00009 8.80907 1.00009 10.6681V19.0491C0.992473 20.9005 1.45723 21.3637 3.28581 21.3333ZM25.2896 13.3348C25.2896 12.6491 25.8382 12.1013 26.5239 12.1013C27.2096 12.1013 27.7582 12.6491 27.7582 13.3348C27.7582 14.0205 27.2096 14.5691 26.5239 14.5691C25.8382 14.5691 25.2896 14.0205 25.2896 13.3348ZM7.85723 5.57136C7.85723 5.01907 8.30495 4.57136 8.85723 4.57136H22.8572C23.4095 4.57136 23.8572 5.01907 23.8572 5.57136V7.38393C23.8572 7.93621 23.4095 8.38393 22.8572 8.38393H8.85723C8.30495 8.38393 7.85723 7.93621 7.85723 7.38393V5.57136Z" fill="#A1BD71"/>
<path d="M10 20L21.4 20" stroke="white" stroke-width="1.5" stroke-linecap="round"/>
<path d="M10 24L21.4 24" stroke="white" stroke-width="1.5" stroke-linecap="round"/>
</svg>
