<svg width="32" height="32" viewBox="0 0 32 32" fill="none" xmlns="http://www.w3.org/2000/svg">
<path d="M10.8812 11.7696H21.7758C22.3224 11.7696 22.7648 12.212 22.7648 12.7586C22.7648 13.3052 22.3224 13.7476 21.7758 13.7476H10.8567C10.3101 13.7476 9.86631 13.3052 9.86631 12.7586C9.86631 12.212 10.3087 11.7696 10.8553 11.7696H10.8812ZM10.8598 18.6655H15.5936C16.1402 18.6655 16.584 19.1079 16.584 19.6545C16.584 20.2011 16.1402 20.6449 15.5936 20.6449H10.8569C10.3103 20.6449 9.86646 20.2011 9.86646 19.6545C9.86646 19.1079 10.3089 18.6655 10.8555 18.6655H10.8598ZM24.4353 21.7809C24.8805 21.7809 25.1037 22.3189 24.7893 22.6341L20.8788 26.5535C20.564 26.869 20.0248 26.6461 20.0248 26.2004V22.3775C20.0348 22.0507 20.2974 21.7881 20.6242 21.781L24.4353 21.7809ZM27.6168 4.50063C27.6174 3.67212 26.9454 3.0001 26.1169 3.00021L7.59881 3.00285H7.59738C6.64384 3.00285 6.97286 3.00299 6.50174 3.0029C5.67314 3.00273 5.00004 3.67439 5.00009 4.50299L5.00143 26.8387L5.00143 27.8991C5.00143 28.7269 5.67207 29.3983 6.4999 29.3991L20.4102 29.4133C20.6628 29.4133 20.914 29.3177 21.1066 29.1236L27.3303 22.8857C27.5372 22.6787 27.6328 22.4019 27.6171 22.1307V5.55906C27.6162 4.62497 27.6165 4.92227 27.6168 4.50063Z" fill="#A1BD71"/>
<rect x="7.43408" y="10.8853" width="19.3743" height="2.86865" rx="1.43433" fill="#A1BD71"/>
<rect x="7.27344" y="17.9438" width="19.3743" height="2.86865" rx="1.43433" fill="#A1BD71"/>
<rect x="9.89551" y="11.8428" width="12.209" height="1.5" rx="0.75" fill="white"/>
<rect x="9.89551" y="14.7065" width="12.209" height="1.5" rx="0.75" fill="white"/>
</svg>
