<svg width="32" height="32" viewBox="0 0 32 32" fill="none" xmlns="http://www.w3.org/2000/svg">
<path d="M22.0798 11.92L10.8669 0.707107C10.4764 0.316583 9.84326 0.316582 9.45273 0.707107L8.98694 1.17289C8.59642 1.56342 8.59642 2.19658 8.98694 2.58711L10.7461 4.34623C11.1366 4.73675 11.1366 5.36992 10.7461 5.76044L4.5865 11.92C4.39945 12.1048 4.25094 12.3249 4.14958 12.5675C4.04822 12.8101 3.99602 13.0704 3.99602 13.3333C3.99602 13.5963 4.04822 13.8566 4.14958 14.0992C4.25094 14.3418 4.39945 14.5619 4.5865 14.7467L11.9198 22.08C12.3065 22.4667 12.8265 22.6667 13.3332 22.6667C13.8398 22.6667 14.3598 22.4667 14.7465 22.08L22.0798 14.7467C22.8665 13.9733 22.8665 12.7067 22.0798 11.92ZM9.36072 13.3333C8.46981 13.3333 8.02365 12.2562 8.65361 11.6262L12.6261 7.65377C13.0166 7.26325 13.6498 7.26325 14.0403 7.65377L18.0127 11.6262C18.6427 12.2562 18.1965 13.3333 17.3056 13.3333H9.36072ZM26.0336 16.1605C25.6691 15.7037 24.9973 15.7037 24.6328 16.1605C23.8427 17.1506 22.6665 18.8223 22.6665 20C22.6665 21.4667 23.8665 22.6667 25.3332 22.6667C26.7998 22.6667 27.9998 21.4667 27.9998 20C27.9998 18.8223 26.8237 17.1506 26.0336 16.1605ZM2.6665 26.5C2.6665 25.6716 3.33808 25 4.1665 25H15.9998H27.8332C28.6616 25 29.3332 25.6716 29.3332 26.5L29.3332 30.5C29.3332 31.3284 28.6616 32 27.8332 32H4.1665C3.33808 32 2.6665 31.3284 2.6665 30.5V26.5Z" fill="#A1BD71"/>
</svg>
