<svg width="32" height="32" viewBox="0 0 32 32" fill="none" xmlns="http://www.w3.org/2000/svg">
<path fill-rule="evenodd" clip-rule="evenodd" d="M3.73426 3.33638V19.7399H2.41379C2.04449 19.7399 1.74561 20.0387 1.74561 20.4081C1.74561 20.7774 2.04446 21.0762 2.41379 21.0762H11.6228L9.94668 24.374H4.40137C4.03206 24.374 3.73318 24.6728 3.73318 25.0422C3.73318 25.4115 4.03203 25.7104 4.40137 25.7104H9.26741L7.74921 28.6957C7.5833 29.0241 7.71512 29.4252 8.04466 29.5911C8.3742 29.757 8.7742 29.6252 8.94011 29.2957L10.7628 25.7094H21.431L23.2538 29.2957C23.4197 29.6241 23.8197 29.757 24.1492 29.5911C24.4788 29.4252 24.6106 29.0252 24.4447 28.6957L22.9276 25.7104H27.5982C27.9675 25.7104 28.2664 25.4115 28.2664 25.0422C28.2664 24.6729 27.9675 24.374 27.5982 24.374H22.2481L20.5719 21.0762H29.5866C29.9559 21.0762 30.2548 20.7774 30.2548 20.4081C30.2548 20.0387 29.956 19.7399 29.5866 19.7399H28.2662V3.33638H29.5866C29.9559 3.33638 30.2548 3.03753 30.2548 2.66819C30.2548 2.29885 29.956 2 29.5866 2H2.41397C2.04466 2 1.74578 2.29885 1.74578 2.66819C1.74578 3.03753 2.04463 3.33638 2.41397 3.33638H3.73426ZM13.1184 21.076H19.0762L20.7524 24.3738H11.4421L13.1184 21.076Z" fill="#A1BD71"/>
<path d="M10 9H22" stroke="white" stroke-width="1.5" stroke-linecap="round"/>
<path d="M8 14H23.5" stroke="white" stroke-width="1.5" stroke-linecap="round"/>
</svg>
