<svg width="32" height="32" viewBox="0 0 32 32" fill="none" xmlns="http://www.w3.org/2000/svg">
<path d="M2.49997 28.1871C2.49999 29.0155 3.17155 29.6874 3.99997 29.6874H28.0003C28.8287 29.6874 29.5003 29.015 29.5003 28.1865C29.5003 26.2703 29.5003 27.8582 29.5003 25.5354V11.6742C29.5003 9.59328 29.5003 9.98349 29.5003 9.02306C29.5003 8.19463 28.8287 7.52221 28.0003 7.52221H21.5517C21.4717 4.70964 19.034 2.3125 16.0072 2.3125C12.9672 2.3125 10.5295 4.70964 10.4489 7.52221H3.99994C3.17152 7.52221 2.49976 7.93153 2.49997 8.75995C2.49999 8.82711 2.50001 9.37231 2.5 11.6742V25.5359C2.5 27.6168 2.49994 26.1832 2.49997 28.1871ZM16.0072 4.3485C17.8952 4.3485 19.3283 5.7685 19.3957 7.52279H12.6186C12.6723 5.7685 14.1055 4.3485 16.0072 4.3485Z" fill="#A1BD71"/>
<path d="M8 16H24" stroke="white" stroke-width="1.5" stroke-linecap="round"/>
<path d="M13 16H19V21C19 21.5523 18.5523 22 18 22H14C13.4477 22 13 21.5523 13 21V16Z" fill="white"/>
</svg>
