<svg width="32" height="32" viewBox="0 0 32 32" fill="none" xmlns="http://www.w3.org/2000/svg">
<path d="M29.5469 18.7362L26.2135 24.5993C25.5602 25.7638 24.3468 26.3731 23.1202 26.2919H20.4535V29L17.1201 22.9067L20.4535 16.8134V19.5216H24.2135L21.7404 15.166C21.4704 14.6905 21.6325 14.0862 22.1042 13.8096L26.1523 11.436C26.6334 11.154 27.2522 11.3199 27.5276 11.8047L29.4269 15.1479C30.1202 16.1906 30.2135 17.5853 29.5469 18.7362ZM12.7334 2H19.4001C20.7068 2 21.8401 2.77182 22.3868 3.88215L23.7202 6.23821L26.0268 4.88415L22.5068 10.8556L15.6401 10.9774L17.9468 9.62337L16.0668 6.30592L13.6195 10.6355C13.3449 11.1213 12.7257 11.2884 12.244 11.0066L8.18565 8.63248C7.71321 8.3561 7.55074 7.75127 7.8211 7.27537L9.73339 3.90923C10.2801 2.78536 11.4134 2 12.7334 2ZM7.1867 24.6128L3.85334 18.7497C3.2 17.5988 3.29334 16.2177 3.97334 15.175L5.30668 12.8325L3 11.4784L9.85339 11.5868L13.3867 17.5717L11.0801 16.2177L9.20005 19.5216H14.1201C14.6724 19.5216 15.1201 19.9693 15.1201 20.5216V25.2919C15.1201 25.8442 14.6724 26.2919 14.1201 26.2919H10.3201C9.69539 26.3378 9.07058 26.2048 8.51666 25.9079C7.96274 25.6111 7.50196 25.1624 7.1867 24.6128Z" fill="#A1BD71"/>
</svg>
