<svg width="32" height="32" viewBox="0 0 32 32" fill="none" xmlns="http://www.w3.org/2000/svg">
<path d="M5.66667 9H27C28.4667 9 29.6667 10.2 29.6667 11.6667V27.6667C29.6667 29.1333 28.4667 30.3333 27 30.3333H5.66667C4.2 30.3333 3 29.1333 3 27.6667V11.6667C3 10.2 4.2 9 5.66667 9Z" fill="#A1BD71"/>
<rect x="7" y="1" width="18" height="11.5" rx="1" fill="white"/>
<path d="M8.5 3.5C8.5 3.22386 8.72386 3 9 3H23.0001C23.2763 3 23.5001 3.22386 23.5001 3.5V10.5C23.5001 10.7761 23.2763 11 23.0001 11H9C8.72386 11 8.5 10.7761 8.5 10.5V3.5Z" fill="#A1BD71"/>
<path d="M7 16L15.1123 21.273C15.7896 21.7132 16.6651 21.7028 17.3317 21.2467L25 16" stroke="white" stroke-width="1.5" stroke-linecap="round"/>
</svg>
