<svg width="32" height="32" viewBox="0 0 32 32" fill="none" xmlns="http://www.w3.org/2000/svg">
<path d="M9.77019 8.04273C9.98559 8.14324 10.1573 8.3411 10.1573 8.5788V12.3335C10.1612 12.7746 10.3407 13.1974 10.6556 13.507C10.9704 13.8167 11.3959 13.9884 11.8369 13.9845H20.1633C21.078 13.9845 21.8208 13.2481 21.8286 12.3335V8.60957C21.8286 8.35833 22.0192 8.15308 22.2527 8.06033C22.5153 7.95603 22.7512 7.78953 22.9384 7.57315C23.2871 7.15293 23.412 6.5896 23.2714 6.06137L22.7161 3.79955C22.716 3.79922 22.7162 3.79891 22.7166 3.79891V3.79891C22.7169 3.79891 22.7171 3.7986 22.7171 3.79828C22.5113 2.87361 21.6801 2.22209 20.7319 2.2442H11.2684C10.3408 2.2481 9.53935 2.89339 9.33899 3.79891L8.77046 6.11599C8.75615 6.23568 8.75615 6.35798 8.77046 6.47766C8.77262 7.15988 9.1728 7.76398 9.77019 8.04273ZM20.7191 3.63661C20.7276 3.63383 20.7364 3.63233 20.7454 3.63244C21.0428 3.63602 21.3002 3.84234 21.3707 4.132L21.9392 6.40745C21.9704 6.53885 21.9392 6.67675 21.8559 6.78214C21.7766 6.88622 21.6543 6.94736 21.5229 6.94867H21.3837V6.94867C21.384 6.94867 21.384 6.94828 21.3838 6.94818C21.244 6.89181 21.1416 6.77081 21.1084 6.62416C21.1071 6.61849 21.1066 6.61268 21.1066 6.60687V6.47575C21.1066 6.44847 21.1043 6.42125 21.0999 6.39434L20.6607 3.73292C20.6537 3.69081 20.6785 3.64992 20.7191 3.63661V3.63661ZM19.0326 3.63241C19.2119 3.63241 19.3646 3.76258 19.393 3.93959L19.6624 5.61644L19.8016 6.49016C19.8016 6.49048 19.8019 6.49071 19.8022 6.49071V6.49071C19.8026 6.49071 19.8029 6.49106 19.8028 6.49145C19.7818 6.65506 19.6726 6.79393 19.518 6.85238C19.3645 6.91092 19.1902 6.8784 19.0666 6.76911C18.9735 6.68079 18.9061 6.56902 18.869 6.44636C18.8613 6.42065 18.8573 6.394 18.8552 6.36723L18.6686 4.02651C18.6517 3.81411 18.8195 3.63241 19.0326 3.63241V3.63241ZM16.6711 3.96716C16.6684 3.78308 16.8169 3.63241 17.001 3.63241V3.63241C17.1728 3.63241 17.3158 3.76421 17.3299 3.93542L17.5371 6.46313C17.5393 6.49102 17.54 6.51919 17.5346 6.54664C17.5251 6.59482 17.5065 6.64108 17.4794 6.68258C17.4661 6.70309 17.4572 6.72654 17.4572 6.75103V6.75103C17.4572 6.78007 17.4459 6.80839 17.4231 6.82637C17.3389 6.89277 17.2325 6.92706 17.1242 6.92135C16.8978 6.91355 16.7156 6.73141 16.7079 6.50503L16.6711 3.96716ZM14.6686 3.93673C14.6836 3.76454 14.8278 3.63241 15.0006 3.63241V3.63241C15.1847 3.63241 15.334 3.78165 15.334 3.96574V6.49071C15.334 6.7366 15.1349 6.93564 14.8903 6.93564C14.6445 6.93564 14.4454 6.73659 14.4454 6.49071L14.6686 3.93673ZM12.2688 6.51828C12.2692 6.44434 12.2594 6.36961 12.2715 6.29665L12.6645 3.91494C12.6914 3.75197 12.8323 3.63241 12.9975 3.63241V3.63241C13.1945 3.63241 13.3496 3.80037 13.3339 3.9967L13.1418 6.40745C13.1367 6.44621 13.1349 6.48552 13.1364 6.52467C13.1381 6.56704 13.1406 6.60999 13.1294 6.65088C13.0756 6.84735 12.8926 6.98554 12.6838 6.9773C12.5706 6.9773 12.4627 6.93176 12.3846 6.8498C12.3052 6.76914 12.2636 6.65985 12.2675 6.54666C12.2683 6.5372 12.2687 6.52773 12.2688 6.51828ZM10.0415 6.40133C10.0521 6.40465 10.0633 6.39836 10.066 6.38758L10.6294 4.14557C10.6294 4.14549 10.6295 4.1455 10.6295 4.14559V4.14559C10.6295 4.14568 10.6297 4.14569 10.6297 4.14561C10.695 3.84544 10.9615 3.63238 11.2684 3.63238V3.63238C11.3262 3.63238 11.3702 3.68439 11.3605 3.74143L10.9483 6.18627C10.9435 6.2201 10.9422 6.25464 10.9446 6.28884C10.9462 6.31245 10.9483 6.33605 10.9483 6.3597V6.53918C10.9483 6.57183 10.9459 6.60468 10.9362 6.63583C10.9052 6.73462 10.8415 6.81924 10.7562 6.87647C10.7034 6.91192 10.6385 6.92133 10.5749 6.92133H10.4487C10.2145 6.91353 10.0259 6.72618 10.0194 6.49069C10.0164 6.46702 10.0157 6.44186 10.0172 6.41747C10.018 6.40543 10.03 6.39773 10.0415 6.40133V6.40133ZM13.363 27.2118C13.363 26.3833 14.0345 25.7118 14.863 25.7118H17.1364C17.9646 25.7118 18.6361 26.3831 18.6364 27.2113L18.6368 28.4994C18.637 29.328 17.9654 29.9999 17.1368 29.9999H14.863C14.0345 29.9999 13.363 29.3283 13.363 28.4999L13.363 27.2118ZM2.1223 26.6407C2.1223 26.1277 2.53818 25.7118 3.0512 25.7118H10.5308C11.3592 25.7118 12.0308 26.3834 12.0308 27.2118V28.4999C12.0308 29.3283 11.3592 29.9999 10.5308 29.9999H5.42556C4.5409 29.996 3.69523 29.6395 3.07464 29.0085C2.45406 28.3775 2.11191 27.5254 2.1223 26.6407V26.6407ZM19.9686 27.2122C19.9684 26.3836 20.64 25.7118 21.4686 25.7118H28.9477C29.4615 25.7118 29.878 26.1283 29.878 26.642V26.642V26.6407C29.8884 27.5254 29.5462 28.3775 28.9256 29.0085C28.305 29.6395 27.4594 29.996 26.5747 29.9999H21.469C20.6408 29.9999 19.9693 29.3286 19.969 28.5004L19.9686 27.2122ZM29.878 10.7788V22.9485C29.878 23.7769 29.2064 24.4485 28.378 24.4485H3.6223C2.79387 24.4485 2.1223 23.7769 2.1223 22.9485V10.7788C2.13011 8.95873 3.60414 7.48469 5.42556 7.47686H6.59397C7.23893 7.47686 7.78509 7.91558 8.18404 8.42235C8.21082 8.45637 8.23831 8.48985 8.26649 8.52275C8.58343 8.89276 8.8394 9.33426 8.8394 9.82145V12.3335C8.8394 13.1258 9.15554 13.8856 9.71887 14.4437C10.2822 15.0006 11.0446 15.3102 11.8369 15.3037H20.1633C20.9531 15.3076 21.7128 14.9953 22.2723 14.4385C22.8317 13.8804 23.1465 13.1232 23.1465 12.3335V9.89299C23.1465 9.38138 23.427 8.92184 23.7754 8.5472C23.8219 8.49719 23.8669 8.44567 23.9102 8.3927V8.3927C24.2805 7.89985 24.8015 7.47679 25.4179 7.47679H26.5617H26.5604C28.387 7.47679 29.8702 8.9535 29.878 10.7788Z" fill="#A1BD71"/>
<path d="M2 24.5C1.58579 24.5 1.25 24.8358 1.25 25.25C1.25 25.6642 1.58579 26 2 26V24.5ZM2 26H30V24.5H2V26Z" fill="white"/>
</svg>
