<svg width="33" height="32" viewBox="0 0 33 32" fill="none" xmlns="http://www.w3.org/2000/svg">
<path d="M1.9673 7.1634L14.542 0.283024C14.878 0.0973785 15.2556 0 15.6395 0C16.0233 0 16.4009 0.0973785 16.7369 0.283024L29.3116 7.16626C29.6707 7.36274 29.9705 7.65204 30.1796 8.00394C30.3887 8.35584 30.4996 8.75743 30.5005 9.16678V22.8332C30.4996 23.2426 30.3887 23.6442 30.1796 23.9961C29.9705 24.348 29.6707 24.6373 29.3116 24.8337L16.7369 31.717C16.4009 31.9026 16.0233 32 15.6395 32C15.2556 32 14.878 31.9026 14.542 31.717L1.9673 24.8337C1.60819 24.6373 1.30841 24.348 1.09928 23.9961C0.890156 23.6442 0.779342 23.2426 0.778412 22.8332V9.16821C0.778574 8.75813 0.889025 8.35565 1.09819 8.00293C1.30736 7.65021 1.60755 7.36024 1.9673 7.1634ZM15.6395 2.28355L4.15787 8.57091L8.41327 10.8987L19.8949 4.6113L15.6395 2.28355ZM15.6395 14.8583L27.121 8.57091L22.2755 5.91736L10.7939 12.2047L15.6395 14.8583ZM3.06473 22.8389L14.4963 29.0963V16.8345L9.92367 14.3324V19.4309C9.92367 19.7341 9.80323 20.0249 9.58884 20.2392C9.37446 20.4536 9.08369 20.5741 8.78051 20.5741C8.47733 20.5741 8.18656 20.4536 7.97217 20.2392C7.75779 20.0249 7.63735 19.7341 7.63735 19.4309V13.0807L3.06473 10.5786V22.8332V22.8389Z" fill="#A1BD71"/>
</svg>
