<svg width="32" height="32" viewBox="0 0 32 32" fill="none" xmlns="http://www.w3.org/2000/svg">
<path d="M25.8882 19.7839C26.3334 19.7838 26.5566 20.3219 26.2422 20.637L22.3316 24.5564C22.0168 24.872 21.4777 24.649 21.4777 24.2033V20.3804C21.4877 20.0536 21.7502 19.791 22.0771 19.7839L25.8882 19.7839ZM29.0699 2.00513C29.07 1.45279 28.6222 1.00299 28.0698 1.00307L9.05165 1.00578H9.05022C7.87005 1.00578 8.65455 1.006 7.4551 1.00571C6.9027 1.00558 6.45287 1.45337 6.4529 2.00577L6.45427 24.8417L6.45427 26.4015C6.45427 26.9534 6.90136 27.401 7.45325 27.4015L21.863 27.4162C22.1156 27.4162 22.3668 27.3206 22.5595 27.1265L28.7831 20.8886C28.99 20.6817 29.0857 20.4048 29.07 20.1337V3.56199C29.0688 2.38859 29.0695 3.15836 29.0699 2.00513ZM4.05666 6.84114C3.50579 6.84114 3.05908 7.28784 3.06051 7.84013L3.05908 28.0367C3.06051 29.4582 4.20078 30.6398 5.61934 30.6398H21.2692C21.8215 30.6398 22.2697 30.1931 22.2697 29.6408C22.2697 29.0885 21.8215 28.6404 21.2692 28.6404L6.25656 28.6497C5.59346 28.6501 5.05573 28.1126 5.05582 27.4495L5.05851 7.83869C5.05851 7.28782 4.6118 6.84111 4.05951 6.84111H4.05808L4.05666 6.84114Z" fill="#A1BD71"/>
<path d="M12 11H23" stroke="white" stroke-width="1.5" stroke-linecap="round"/>
<path d="M12 17H17" stroke="white" stroke-width="1.5" stroke-linecap="round"/>
</svg>
