<?xml version="1.0" encoding="UTF-8"?> <svg xmlns="http://www.w3.org/2000/svg" width="361" height="81" viewBox="0 0 361 81" fill="none"><path d="M161.99 67.1478C161.99 66.6083 162.141 66.4356 162.681 66.4572C163.22 66.4788 163.242 66.7809 163.263 67.1694C163.285 67.5578 163.263 67.9247 162.594 67.9463C161.925 67.9679 161.882 67.5794 161.99 67.1478Z" fill="black"></path><path d="M86.0444 67.2341C86.0444 67.752 85.9149 67.9463 85.3538 67.9247C84.7926 67.9031 84.7926 67.6226 84.7711 67.2125C84.7495 66.8025 84.7711 66.4571 85.4185 66.4356C86.066 66.414 86.0875 66.7809 86.0444 67.2341Z" fill="black"></path><path d="M241.173 50.6383H233.986C233.295 50.6383 233.188 50.2283 232.993 49.7535C231.59 46.3436 230.123 42.9553 228.785 39.5022C228.68 39.1536 228.45 38.8556 228.14 38.6647C227.83 38.4738 227.46 38.4032 227.102 38.4663H205.52C205.164 38.4109 204.801 38.488 204.499 38.6829C204.196 38.8779 203.976 39.1771 203.88 39.5238C202.52 42.9121 201.031 46.2573 199.671 49.6456C199.599 49.9623 199.41 50.2402 199.142 50.4241C198.874 50.6079 198.547 50.6844 198.225 50.6383H192.593C191.535 50.6383 191.578 50.3578 191.924 49.5377C196.6 39.0059 201.268 28.4597 205.93 17.8991C208.326 12.4389 210.764 6.97881 213.138 1.49709C213.25 1.08799 213.512 0.736241 213.873 0.512169C214.233 0.288098 214.664 0.208223 215.081 0.288518H219.073C219.315 0.250111 219.562 0.298374 219.771 0.424766C219.981 0.551158 220.139 0.747529 220.217 0.979128C227.195 17.3811 234.18 33.7903 241.173 50.2067C241.185 50.3503 241.185 50.4947 241.173 50.6383ZM216.548 9.46069L207.052 31.9055H225.591L216.548 9.46069ZM280.343 13.3238V15.3309C279.653 22.8197 274.754 27.5245 266.833 28.2798C263.013 28.6683 259.193 28.4309 255.352 28.4741C254.489 28.4741 254.251 28.6683 254.251 29.5531V49.365C254.251 50.3146 254.078 50.7031 253.043 50.6383H248.295C247.561 50.6383 247.28 50.4873 247.28 49.6672V1.19494C247.28 0.633823 247.28 0.288518 248.057 0.288518C254.294 0.461171 260.553 0.00795752 266.79 0.569078C268.612 0.748362 270.399 1.18431 272.099 1.86397C274.487 2.69139 276.561 4.23656 278.036 6.28799C279.512 8.33941 280.318 10.7968 280.343 13.3238ZM255.158 6.84932C254.424 6.84932 254.251 7.06513 254.251 7.75574V21.2226C254.251 21.9348 254.467 22.1291 255.179 22.1075H264.287C265.286 22.0834 266.279 21.9385 267.243 21.6759C268.971 21.394 270.528 20.4707 271.605 19.0903C272.681 17.71 273.197 15.9743 273.049 14.2302C273.062 12.5022 272.441 10.8293 271.304 9.52852C270.166 8.22778 268.591 7.38966 266.876 7.17304C264.731 6.88759 262.564 6.7937 260.402 6.89248C258.481 6.80615 256.841 6.82774 255.158 6.78457V6.84932ZM166.997 39.6749V49.6456C166.997 50.4873 166.738 50.7247 165.918 50.7031H161.299C160.242 50.7031 160.004 50.4225 160.004 49.4082V7.77733V1.43234C160.004 0.655405 160.004 0.353263 160.997 0.353263H176.86C179.952 0.353405 183.007 1.02341 185.816 2.31719C188.42 3.53894 190.535 5.60341 191.819 8.17657C193.104 10.7497 193.483 13.6811 192.895 16.4963C192.508 19.4533 191.141 22.1953 189.013 24.2843C186.885 26.3734 184.118 27.6889 181.154 28.0208C177.015 28.5062 172.844 28.6578 168.68 28.4741C166.954 28.4741 166.954 28.4741 166.954 30.2653L166.997 39.6749ZM166.997 20.8342C166.997 21.9133 167.321 22.1291 168.335 22.1075H174.96C176.745 22.1908 178.532 22.0237 180.269 21.6111C181.527 21.3659 182.688 20.7695 183.621 19.891C184.553 19.0125 185.216 17.8878 185.535 16.6474C185.89 15.615 186.005 14.5154 185.872 13.4319C185.738 12.3484 185.36 11.3096 184.765 10.3943C184.17 9.47904 183.374 8.71131 182.438 8.14942C181.502 7.58753 180.451 7.24624 179.363 7.15146C175.467 6.80255 171.553 6.70163 167.644 6.84932C166.889 6.84932 167.04 7.34569 167.04 7.77733V14.5108C166.997 16.561 167.062 18.676 166.954 20.791L166.997 20.8342Z" fill="#333333"></path><path d="M48.665 21.0494C50.2656 18.705 52.6303 16.9887 55.3553 16.1935C58.2092 15.5436 61.1824 15.6402 63.988 16.4741C66.1719 17.158 68.0852 18.5121 69.4564 20.3444C70.8277 22.1766 71.5874 24.394 71.6278 26.6822C72.0595 31.5165 71.7573 36.3939 71.8221 41.2497V49.3428C71.8221 50.055 71.6278 50.2924 70.9156 50.2493H66.2756C65.3692 50.2493 65.3044 49.904 65.3044 49.1702V31.2143C65.3673 29.6374 65.2 28.0598 64.8081 26.5311C64.5522 25.3636 63.946 24.302 63.0705 23.4883C62.1951 22.6745 61.0921 22.1474 59.909 21.9774C58.6739 21.7094 57.3959 21.7064 56.1596 21.9687C54.9232 22.2311 53.7566 22.7528 52.7367 23.4993C51.7168 24.2458 50.867 25.2003 50.2432 26.2995C49.6195 27.3988 49.236 28.6179 49.1183 29.8763C48.8695 31.3954 48.7611 32.9342 48.7945 34.4731V49.1702C48.7945 49.9471 48.665 50.2924 47.7802 50.2493C46.2779 50.163 44.7719 50.163 43.2697 50.2493C42.4064 50.2493 42.2769 49.9471 42.2769 49.1918V26.1211C42.2769 23.2939 42.1258 20.4667 41.9963 17.6611C41.9963 16.841 42.169 16.5604 43.0323 16.582H47.7802C48.5571 16.582 48.7945 16.8194 48.773 17.5748C48.6435 18.7402 48.665 19.9056 48.665 21.0494ZM77.7138 16.6252H84.4041C85.2027 16.6252 85.2242 17.2079 85.3969 17.6827C88.3895 25.1499 91.375 32.6171 94.3532 40.0843C94.4449 40.5237 94.6712 40.9235 95.0007 41.2282C96.7056 36.7176 98.4106 32.2502 100.116 27.7828C101.41 24.373 102.727 20.9846 103.979 17.5532C104.041 17.2527 104.218 16.9882 104.471 16.8152C104.725 16.6422 105.036 16.5741 105.338 16.6252H109.957C111.079 16.6252 111.295 16.8194 110.863 17.8985C108.705 23.4234 106.547 28.9698 104.238 34.5163C102.295 39.4585 100.31 44.3791 98.389 49.3213C98.3212 49.6348 98.1357 49.9104 97.8706 50.0911C97.6056 50.2719 97.2813 50.3439 96.9646 50.2924H92.0872C91.5908 50.2924 91.2671 50.2924 91.0297 49.6881L77.7138 16.9705C77.6945 16.8562 77.6945 16.7395 77.7138 16.6252Z" fill="#007944"></path><path d="M20.1126 35.6387H8.11322C7.18521 35.6387 6.86149 35.7682 7.14205 36.8041C7.48093 38.6836 8.35589 40.4251 9.66156 41.8188C10.9672 43.2125 12.648 44.1991 14.5014 44.6598C16.5518 45.2719 18.7341 45.2886 20.7937 44.7078C22.8532 44.127 24.7053 42.9726 26.1338 41.3794C27.2777 40.1493 27.2561 40.1277 28.5726 41.1636C29.4574 41.8542 30.2991 42.588 31.2271 43.2138C32.1551 43.8397 32.0903 44.0555 31.4645 44.8109C29.7173 46.9428 27.485 48.6254 24.9544 49.718C22.4238 50.8106 19.6683 51.2815 16.9185 51.0911C5.58818 50.9832 -1.10211 41.7679 0.14962 31.1713C1.03446 23.7257 4.98389 18.4814 12.408 16.4959C15.1531 15.5721 18.0988 15.4177 20.9255 16.0492C23.7522 16.6807 26.3521 18.0742 28.4431 20.0784C31.4796 23.218 33.188 27.4079 33.2126 31.7756C33.2126 33.0058 33.6658 34.6028 33.0615 35.4013C32.4572 36.1998 30.7955 35.6171 29.6085 35.6387H20.1126ZM25.3785 30.0491C26.1986 30.0491 26.3928 29.8117 26.2417 29.0563C26.0447 27.7454 25.5542 26.4959 24.8068 25.401C24.0594 24.3061 23.0745 23.394 21.9254 22.7329C20.5577 21.9614 19.0294 21.5181 17.4612 21.4377C15.8929 21.3574 14.3273 21.6423 12.8879 22.2699C11.4484 22.8976 10.1744 23.8509 9.16607 25.0548C8.15776 26.2586 7.44273 27.6802 7.0773 29.2074C6.86149 30.0059 7.0773 30.0922 7.7895 30.0922H16.6595C19.6162 30.0275 22.5081 29.9843 25.3785 30.0491ZM133.157 51.0695C123.898 51.0695 116.928 45.6094 115.46 36.7394C113.302 23.9415 122.755 14.5535 135.358 15.9779C139.016 16.1595 142.506 17.5646 145.269 19.9676C148.032 22.3706 149.908 25.6322 150.595 29.229C153.098 40.9262 145.566 51.048 133.157 51.0695ZM144.185 33.5453C144.105 31.3776 143.389 29.2813 142.128 27.5167C140.866 25.7522 139.114 24.397 137.089 23.6196C135.064 22.8423 132.855 22.6769 130.737 23.144C128.619 23.6112 126.684 24.6903 125.174 26.2474C123.664 27.8044 122.644 29.7708 122.242 31.9024C121.84 34.0339 122.072 36.2366 122.911 38.237C123.75 40.2374 125.158 41.9473 126.96 43.1544C128.763 44.3615 130.88 45.0125 133.049 45.0267C134.55 45.0584 136.041 44.7803 137.429 44.21C138.817 43.6397 140.073 42.7893 141.118 41.7119C142.163 40.6345 142.975 39.3532 143.502 37.9481C144.03 36.543 144.262 35.0442 144.185 33.5453Z" fill="#007944"></path><path d="M240.31 79.6649C239.49 78.6721 239.554 78.4779 240.72 78.1973C240.942 78.1213 241.146 78.0002 241.32 77.8415C241.493 77.6828 241.632 77.49 241.727 77.2752C241.822 77.0604 241.872 76.8282 241.873 76.5932C241.874 76.3582 241.827 76.1255 241.734 75.9097C241.022 74.0105 240.267 72.1329 239.576 70.2122C239.468 69.9532 238.864 69.4784 239.576 69.241C239.693 69.1981 239.819 69.1812 239.943 69.1915C240.068 69.2018 240.189 69.239 240.297 69.3006C240.406 69.3622 240.5 69.4466 240.573 69.5481C240.646 69.6496 240.696 69.7657 240.72 69.8884C241.238 71.4855 241.842 73.0394 242.49 74.8738C243.137 73.1257 243.72 71.6581 244.216 70.1474C244.475 69.4136 244.799 68.982 245.792 69.3705C244.648 72.3272 243.482 75.2838 242.36 78.2405C242.036 79.1254 241.151 79.2333 240.482 79.6649H240.31Z" fill="#007944"></path><path d="M134.322 68.8311C133.545 70.9893 132.79 73.2554 131.991 75.4567C131.819 75.9315 131.819 76.5142 130.998 76.5142C130.178 76.5142 130.222 75.8667 130.07 75.4135C129.272 73.2554 128.517 70.8814 127.524 68.6585V75.5214C127.524 75.9746 127.718 76.5358 126.855 76.4926C125.992 76.4494 126.272 75.953 126.272 75.543V67.7089C126.272 67.2773 125.84 66.5219 126.812 66.4787C127.783 66.4356 128.279 66.3277 128.581 67.4499C129.186 69.6081 130.006 71.7662 130.739 73.9244C130.739 74.1834 130.934 74.4423 131.106 74.8955C132.013 72.2842 132.919 69.867 133.696 67.4067C133.955 66.5219 134.452 66.3924 135.228 66.4356C136.005 66.4787 135.768 67.2341 135.768 67.6657V75.5214C135.768 75.9099 135.984 76.4494 135.185 76.471C134.387 76.4926 134.516 75.9746 134.495 75.4783V68.8743L134.322 68.8311Z" fill="#007944"></path><path d="M52.8087 76.6654C51.9765 76.771 51.1332 76.5918 50.416 76.1567C49.6988 75.7217 49.1501 75.0566 48.8593 74.2698C48.8593 73.9245 48.4492 73.4281 49.0967 73.2555C49.7441 73.0828 49.8736 73.2555 50.0894 73.795C50.3004 74.1965 50.5934 74.5491 50.9495 74.83C51.3055 75.111 51.7166 75.314 52.1561 75.4259C52.5956 75.5378 53.0537 75.5561 53.5007 75.4797C53.9477 75.4032 54.3737 75.2337 54.751 74.982C54.9648 74.8343 55.1333 74.6301 55.2378 74.3922C55.3423 74.1543 55.3787 73.8921 55.3428 73.6347C55.307 73.3774 55.2005 73.135 55.035 72.9347C54.8695 72.7343 54.6517 72.5839 54.4057 72.5001C53.4993 72.1332 52.5065 71.939 51.5569 71.6585C49.8088 71.1621 48.924 70.1477 49.0535 68.8744C49.1652 68.1444 49.5462 67.4826 50.1213 67.0193C50.6964 66.556 51.4241 66.3247 52.1612 66.371C52.9402 66.1966 53.7552 66.2891 54.4753 66.6335C55.1955 66.9779 55.779 67.5543 56.1322 68.2701C56.2617 68.6155 56.5855 69.1118 56.0028 69.3276C55.4201 69.5435 55.1611 69.4571 54.9021 68.7881C54.6979 68.4547 54.4263 68.1677 54.1047 67.9454C53.7831 67.7231 53.4185 67.5705 53.0345 67.4973C52.6505 67.4242 52.2554 67.4321 51.8745 67.5206C51.4937 67.6091 51.1356 67.7762 50.8232 68.0112C50.6257 68.1349 50.469 68.3141 50.3726 68.5263C50.2762 68.7385 50.2445 68.9744 50.2813 69.2046C50.3181 69.4347 50.4219 69.6489 50.5797 69.8205C50.7374 69.9921 50.9422 70.1134 51.1685 70.1693C51.9858 70.4691 52.8221 70.7143 53.6719 70.9031C55.8301 71.529 56.8444 72.5001 56.6286 74.0972C56.4128 75.6942 54.9453 76.687 52.8087 76.6654Z" fill="#007944"></path><path d="M204.807 72.8671V69.8672C204.807 69.6514 204.807 69.3493 205.045 69.263C205.282 69.1766 205.757 69.1119 205.843 69.414C206.059 70.2557 206.361 69.673 206.663 69.5219C207.145 69.1801 207.734 69.0245 208.321 69.0841C208.909 69.1436 209.454 69.4142 209.858 69.8457C210.181 70.191 210.311 70.1478 210.591 69.8457C210.968 69.4452 211.465 69.1796 212.007 69.0899C212.549 69.0002 213.106 69.0913 213.591 69.3493C214.692 69.8457 214.67 70.9247 214.692 71.9175C214.713 72.9102 214.692 74.3994 214.692 75.6511C214.692 76.1043 214.692 76.4712 214.044 76.4712C213.397 76.4712 213.44 76.0827 213.44 75.6511V71.788C213.44 70.9463 213.224 70.191 212.145 70.1478C211.936 70.1206 211.724 70.1373 211.522 70.1969C211.321 70.2565 211.133 70.3576 210.973 70.4937C210.812 70.6298 210.682 70.798 210.59 70.9875C210.499 71.1769 210.447 71.3834 210.44 71.5938V75.5648C210.44 76.018 210.44 76.5144 209.771 76.4712C209.102 76.428 209.188 76.018 209.188 75.6079V71.8743C209.188 71.0758 209.188 70.2126 208.023 70.1694C207.804 70.1354 207.579 70.1489 207.366 70.2089C207.152 70.2689 206.953 70.374 206.784 70.5172C206.614 70.6603 206.477 70.8382 206.382 71.0388C206.286 71.2394 206.235 71.4581 206.232 71.6801C206.102 72.7808 206.232 73.8383 206.081 75.0252C206.081 75.5 206.663 76.428 205.541 76.4496C204.419 76.4712 205.002 75.4784 204.915 74.9605C204.816 74.2674 204.78 73.5667 204.807 72.8671Z" fill="#007944"></path><path d="M186.701 71.6367C186.597 70.8847 186.678 70.1188 186.936 69.4049C187.194 68.6911 187.622 68.0507 188.183 67.5389C188.743 67.0271 189.42 66.6593 190.154 66.467C190.889 66.2748 191.659 66.264 192.398 66.4355C192.976 66.5234 193.521 66.7553 193.985 67.1099C194.449 67.4645 194.816 67.9302 195.053 68.4642C195.182 68.7232 195.549 69.0685 195.053 69.2843C194.556 69.5001 194.168 69.7159 193.887 69.0901C193.717 68.6438 193.425 68.2549 193.043 67.9684C192.661 67.6819 192.205 67.5096 191.729 67.4715C190.963 67.3375 190.174 67.4959 189.518 67.9155C188.863 68.3351 188.389 68.9853 188.19 69.7375C187.866 70.8658 187.866 72.0623 188.19 73.1906C188.305 73.8096 188.626 74.3719 189.099 74.7868C189.573 75.2018 190.172 75.4453 190.801 75.4782C191.443 75.6156 192.114 75.5081 192.681 75.1767C193.248 74.8453 193.67 74.3139 193.866 73.6869C194.146 72.9963 194.492 73.0395 194.988 73.2122C195.484 73.3848 195.204 73.9891 194.988 74.2912C194.602 75.1555 193.93 75.8598 193.084 76.2847C192.238 76.7095 191.272 76.8287 190.348 76.622C189.39 76.4977 188.502 76.056 187.825 75.3674C187.149 74.6788 186.722 73.7832 186.614 72.8237C186.744 72.3705 186.722 71.9173 186.701 71.6367ZM30.7307 69.8886C31.3344 69.3724 32.095 69.0758 32.8888 69.0469C33.1864 69.023 33.4857 69.0611 33.7678 69.1589C34.0499 69.2566 34.3087 69.4118 34.5278 69.6146C34.7468 69.8174 34.9214 70.0635 35.0405 70.3373C35.1596 70.611 35.2206 70.9065 35.2196 71.2051V75.694C35.2196 76.1257 35.2196 76.4062 34.6153 76.4062C34.0111 76.4062 33.9895 76.1473 33.9895 75.7156V71.8525C33.9895 70.5792 33.6873 70.1044 32.5004 70.0828C32.2619 70.0651 32.0224 70.0965 31.7966 70.175C31.5708 70.2535 31.3635 70.3775 31.1875 70.5394C31.0116 70.7012 30.8706 70.8974 30.7735 71.1158C30.6764 71.3342 30.625 71.5703 30.6228 71.8094V75.5646C30.6228 76.0825 30.6228 76.4278 29.9106 76.4062C29.1984 76.3847 29.3926 75.9099 29.3926 75.543V67.1909C29.3926 66.7593 29.3926 66.3708 30.0185 66.3708C30.6443 66.3708 30.6443 66.7377 30.6443 67.1693C30.7091 68.0973 30.7307 68.9174 30.7307 69.8886Z" fill="#007944"></path><path d="M23.5873 72.0467V68.5505C23.5873 67.903 23.4147 67.6441 22.7457 67.7088C22.0766 67.7736 21.4939 67.7088 20.8681 67.7088C20.2422 67.7088 20.2422 67.7088 20.2422 67.1477C20.2422 66.5866 20.3933 66.4787 20.8896 66.4787H27.6447C28.1626 66.4787 28.2274 66.7376 28.249 67.1693C28.2705 67.6009 28.0116 67.7304 27.6231 67.7088H27.4936C26.6735 67.7088 25.5297 67.3203 25.1196 67.8815C24.7096 68.4426 24.9686 69.5433 24.947 70.4065V75.6508C24.947 76.1472 24.947 76.5357 24.2564 76.5141C23.5657 76.4925 23.5658 76.1256 23.5658 75.6293C23.6089 74.3991 23.5873 73.2121 23.5873 72.0467Z" fill="#007944"></path><path d="M178.522 76.6438C177.958 76.7111 177.388 76.5993 176.893 76.3242C176.397 76.0492 176 75.6248 175.759 75.1115C175.651 74.8525 175.306 74.464 175.759 74.313C176.212 74.1619 176.471 73.9677 176.795 74.5504C176.902 74.7862 177.055 74.9983 177.244 75.1743C177.434 75.3502 177.658 75.4864 177.901 75.5749C178.144 75.6634 178.403 75.7023 178.661 75.6894C178.92 75.6766 179.173 75.6121 179.406 75.4999C179.628 75.4406 179.824 75.3125 179.968 75.134C180.111 74.9555 180.194 74.736 180.205 74.5072C180.205 73.9892 179.838 73.795 179.406 73.6655C178.608 73.4281 177.809 73.2123 177.032 72.9533C176.62 72.856 176.256 72.6118 176.01 72.2664C175.764 71.9209 175.652 71.4978 175.694 71.0757C175.702 70.659 175.849 70.2568 176.111 69.9325C176.372 69.6082 176.735 69.3802 177.14 69.2844C177.781 69.0229 178.487 68.9719 179.159 69.1387C179.83 69.3055 180.431 69.6816 180.874 70.2125C181.003 70.4499 181.478 70.8815 180.874 71.1189C180.27 71.3563 180.097 71.4642 179.816 70.9031C179.342 69.9535 178.457 70.083 177.658 70.1909C177.446 70.2072 177.249 70.3031 177.105 70.4592C176.96 70.6153 176.881 70.8201 176.881 71.0326C176.884 71.22 176.952 71.4005 177.075 71.5426C177.197 71.6846 177.365 71.7791 177.55 71.8095C178.176 72.0253 178.824 72.1764 179.471 72.3706C181.025 72.867 181.629 73.5144 181.435 74.6367C181.319 75.2115 181.005 75.7272 180.547 76.094C180.09 76.4608 179.518 76.6554 178.932 76.6438H178.522Z" fill="#007944"></path><path d="M68.4986 69.1116C68.9733 69.0487 69.4563 69.1112 69.8993 69.293C70.3423 69.4747 70.73 69.7694 71.0237 70.1476C71.2179 70.4497 71.5201 70.8598 71.0237 71.1187C70.9422 71.1853 70.847 71.2331 70.7449 71.2585C70.6428 71.2839 70.5363 71.2864 70.4332 71.2658C70.33 71.2452 70.2326 71.2019 70.1482 71.1392C70.0637 71.0764 69.9942 70.9957 69.9446 70.9029C69.4482 69.9533 68.585 70.0828 67.7864 70.1907C67.5762 70.2063 67.3788 70.2983 67.2317 70.4494C67.0846 70.6005 66.9979 70.8002 66.9879 71.0108C66.9879 71.464 67.2901 71.6799 67.657 71.8093C68.4771 72.0683 69.3403 72.2841 70.1604 72.5647C70.5533 72.6427 70.9081 72.8516 71.1669 73.1574C71.4256 73.4632 71.5729 73.8477 71.5848 74.2481C71.598 74.6635 71.491 75.0738 71.2766 75.4299C71.0622 75.7859 70.7496 76.0725 70.3762 76.2552C69.6518 76.6711 68.8006 76.8085 67.9821 76.6416C67.1637 76.4747 66.4342 76.015 65.9304 75.3487C65.7578 75.025 65.3477 74.5934 65.9304 74.2912C66.5131 73.9891 66.7074 74.1402 67.0095 74.7229C67.2631 75.1557 67.6726 75.4751 68.1542 75.6156C68.6358 75.756 69.1528 75.7069 69.5993 75.4782C69.8017 75.4169 69.9805 75.2952 70.1117 75.1293C70.2429 74.9634 70.3201 74.7613 70.3331 74.5502C70.3331 74.0754 70.0309 73.8164 69.5993 73.6869L67.7864 73.169C66.2757 72.7158 65.6283 71.9604 65.8009 71.0108C65.9736 70.0612 67.0311 69.1332 68.4986 69.1116Z" fill="#007944"></path><path d="M64.2035 72.8887V75.7591C64.2035 76.0181 64.2035 76.4065 63.8798 76.4497C63.556 76.4929 63.146 76.6439 63.0597 76.1475C62.9733 75.6512 62.6496 75.9533 62.477 76.1475C62.0459 76.4836 61.5254 76.6853 60.9804 76.7275C60.4354 76.7697 59.8901 76.6506 59.4124 76.3849C58.9992 76.14 58.6692 75.7765 58.4652 75.3416C58.2613 74.9067 58.1927 74.4205 58.2686 73.9462V70.0831C58.2686 69.6515 58.2686 69.2846 58.8944 69.263C59.5203 69.2414 59.5203 69.6299 59.5203 70.0615V73.9246C59.5203 74.8958 59.9088 75.608 60.9231 75.6512C61.3659 75.7067 61.8128 75.5863 62.1679 75.316C62.523 75.0456 62.7579 74.6468 62.8223 74.2052C62.9837 72.8447 63.027 71.4727 62.9518 70.1047C62.9518 69.6947 62.9518 69.263 63.556 69.2846C64.1603 69.3062 64.2035 69.6299 64.2035 70.0831C64.1819 70.968 64.2035 72.047 64.2035 72.8887Z" fill="#007944"></path><path d="M232.087 72.8234V69.8883C232.087 69.6077 232.087 69.2408 232.389 69.1761C232.691 69.1113 233.102 69.0034 233.209 69.4566C233.317 69.9099 233.684 69.6077 233.857 69.4566C236.015 68.2049 238.001 69.2624 238.022 71.809V75.4132C238.022 75.8448 238.173 76.3412 237.418 76.3627C236.663 76.3843 236.792 75.9095 236.792 75.4779V72.0464C236.792 71.0537 236.576 70.1904 235.346 70.1041C235.096 70.0764 234.843 70.1024 234.604 70.1802C234.365 70.2581 234.145 70.386 233.959 70.5555C233.773 70.725 233.626 70.9322 233.526 71.1633C233.427 71.3943 233.378 71.6439 233.382 71.8954C233.274 73.1255 233.382 74.3772 233.382 75.629C233.382 76.0606 233.382 76.4491 232.756 76.4275C232.13 76.4059 232.109 76.0822 232.13 75.629L232.087 72.8234ZM87.9438 72.8018V69.8883C87.9438 69.5861 87.9438 69.284 88.3971 69.3056C88.8503 69.3271 88.9798 69.1977 89.0013 69.543C89.0013 70.2336 89.2387 70.0393 89.6056 69.7588C90.0482 69.4027 90.5885 69.1893 91.155 69.147C91.7214 69.1046 92.2875 69.2351 92.7781 69.5214C93.7925 70.0178 93.814 71.0105 93.814 72.0033V75.4779C93.814 75.8879 94.1378 76.5354 93.2529 76.557C92.3681 76.5786 92.627 75.8664 92.6055 75.3916V71.9169C92.6055 70.7515 92.2817 70.2767 91.2242 70.2552C90.995 70.2114 90.759 70.2178 90.5324 70.2739C90.3059 70.3299 90.0941 70.4343 89.9117 70.5798C89.7292 70.7254 89.5804 70.9086 89.4754 71.1171C89.3705 71.3255 89.3118 71.5542 89.3035 71.7875V75.629C89.3035 76.0822 89.3035 76.557 88.656 76.557C88.0086 76.557 88.0733 76.0174 88.0733 75.6074C87.9439 74.6146 87.9438 73.7082 87.9438 72.8018ZM147.056 66.8669V68.1402C147.056 68.7013 146.883 69.3703 147.854 69.2408C148.178 69.2408 148.264 69.4135 148.286 69.694C148.308 69.9746 148.135 70.2336 147.79 70.1904C146.991 70.0825 147.034 70.5789 147.034 71.0968V73.7082C147.034 74.5715 146.667 75.4779 148.092 75.4779C148.415 75.4779 148.351 75.9527 148.372 76.2117C148.394 76.4707 148.07 76.557 147.833 76.6001C147.602 76.6705 147.358 76.6862 147.12 76.6459C146.882 76.6057 146.657 76.5106 146.462 76.3682C146.268 76.2258 146.109 76.04 145.998 75.8256C145.888 75.6111 145.829 75.3738 145.826 75.1326V71.5285C145.793 71.3646 145.793 71.1959 145.826 71.0321C146.279 70.0825 144.79 70.3846 144.941 69.6293C145.092 68.8739 146.171 69.2624 145.847 68.3128C145.524 67.3632 146.193 67.0827 147.056 66.8669Z" fill="#007944"></path><path d="M74.5413 66.8245V68.1625C74.5413 68.5726 74.5413 69.3495 75.383 69.2416C75.7283 69.2416 75.7714 69.4574 75.793 69.738C75.8146 70.0185 75.6851 70.2343 75.3614 70.1912C74.3902 70.0401 74.5629 70.7307 74.5629 71.2919V73.9032C74.5629 74.7881 74.3039 75.4787 75.5556 75.4571C75.9225 75.4571 75.8793 75.8887 75.9009 76.1477C75.9225 76.4067 75.6851 76.5362 75.4261 76.5793C75.1851 76.6753 74.9241 76.7103 74.6664 76.6812C74.4086 76.6521 74.162 76.5597 73.9485 76.4124C73.735 76.2651 73.5611 76.0673 73.4424 75.8366C73.3237 75.606 73.2638 75.3496 73.268 75.0902V71.2271C73.268 70.8171 73.5485 70.2128 72.6853 70.148C72.2536 70.148 72.3615 69.4143 72.5558 69.3927C73.5269 69.1984 73.2464 68.4862 73.2895 67.882C73.3327 67.2777 73.937 67.105 74.5413 66.8245Z" fill="#007944"></path><path d="M174.075 71.4208V75.7372C174.075 76.1256 174.075 76.4709 173.536 76.4709C172.996 76.4709 172.824 76.2551 172.824 75.7372V67.1045C172.824 66.5866 172.975 66.3708 173.536 66.3708C174.097 66.3708 174.075 66.7376 174.075 67.1261V71.4208Z" fill="#007944"></path><path d="M112.525 71.4211V75.7374C112.525 76.1259 112.525 76.4496 111.964 76.4496C111.403 76.4496 111.273 76.2338 111.273 75.7159V67.0832C111.273 66.5437 111.425 66.3495 111.986 66.3495C112.547 66.3495 112.525 66.7163 112.525 67.0832V71.4211Z" fill="#007944"></path><path d="M157.285 72.845V69.8884C157.285 69.6078 157.285 69.2625 157.673 69.2625C158.062 69.2625 158.299 69.1546 158.364 69.5646C158.364 70.4495 158.774 69.7805 158.904 69.5646C159.119 69.3344 159.399 69.1744 159.707 69.1051C160.015 69.0358 160.337 69.0606 160.63 69.1762C160.868 69.1762 161.256 69.2841 161.127 69.6941C160.997 70.1042 161.019 70.3847 160.458 70.4279C158.86 70.5358 158.58 70.838 158.537 72.4566V75.6722C158.537 76.147 158.537 76.4708 157.889 76.4492C157.242 76.4276 157.285 76.0823 157.285 75.6506V72.845Z" fill="#007944"></path><path d="M163.242 72.8453V75.8236C163.242 76.32 163.069 76.4926 162.594 76.4926C162.119 76.4926 161.99 76.2336 161.99 75.802V69.8887C161.99 69.5002 161.99 69.1549 162.551 69.1549C163.112 69.1549 163.242 69.4139 163.242 69.9102C163.22 70.9246 163.242 71.8742 163.242 72.8453Z" fill="#007944"></path><path d="M84.7926 72.8025V69.9537C84.7926 69.4573 84.9005 69.1984 85.4832 69.2199C86.0659 69.2415 86.0443 69.5437 86.0443 69.9321V75.8886C86.0443 76.2555 86.0443 76.5145 85.5048 76.4929C84.9653 76.4713 84.771 76.4929 84.7926 75.9102C84.8142 74.8743 84.7926 73.8384 84.7926 72.8025Z" fill="#007944"></path><path d="M104.756 69.8884C105.218 69.438 105.819 69.1569 106.462 69.0903C107.104 69.0237 107.75 69.1756 108.295 69.5215C108.878 69.9279 109.329 70.4957 109.594 71.1552C109.858 71.8146 109.924 72.537 109.784 73.2335C109.836 73.7938 109.732 74.3577 109.484 74.8624C109.235 75.3672 108.851 75.793 108.375 76.0927C107.898 76.3923 107.348 76.5541 106.786 76.5598C106.223 76.5656 105.67 76.4152 105.187 76.1254C105.058 76.1254 104.971 75.9312 104.777 75.996C103.525 76.406 103.525 76.3844 103.525 75.068V67.3633C103.525 66.9317 103.353 66.4353 104.13 66.4353C104.907 66.4353 104.756 66.9101 104.756 67.3633V69.8884ZM108.468 71.8523C108.23 70.9027 107.777 70.1042 106.655 70.1258C105.532 70.1474 104.971 70.8811 104.756 71.8955C104.647 72.5094 104.647 73.1375 104.756 73.7515C104.754 74.2152 104.925 74.6629 105.237 75.0064C105.548 75.3499 105.977 75.5644 106.439 75.6075C107.583 75.6075 108.165 74.9385 108.468 73.9457C108.499 73.5867 108.499 73.2256 108.468 72.8666C108.501 72.5366 108.501 72.204 108.468 71.8739V71.8523ZM217.757 75.9312V78.5426C217.757 79.3627 217.627 79.2979 217.066 79.2979C216.505 79.2979 216.505 78.9526 216.505 78.5642V69.9315C216.505 69.1114 217.239 69.0898 217.411 69.4136C217.757 70.0826 217.929 69.8236 218.339 69.5646C218.745 69.3052 219.217 69.1673 219.699 69.1673C220.181 69.1673 220.653 69.3052 221.059 69.5646C221.725 69.9572 222.249 70.5514 222.555 71.2613C222.862 71.9711 222.935 72.76 222.764 73.5141C222.757 74.2268 222.524 74.919 222.097 75.4896C221.67 76.0603 221.072 76.4797 220.39 76.6866C219.922 76.7685 219.442 76.7431 218.986 76.6123C218.53 76.4814 218.11 76.2485 217.757 75.9312ZM221.469 71.8091C221.21 70.8595 220.735 70.0826 219.634 70.1042C218.534 70.1258 218.037 70.838 217.778 71.7876C217.705 72.0709 217.655 72.3595 217.627 72.6508C217.498 74.3342 218.296 75.6075 219.505 75.6506C220.713 75.6938 221.555 74.55 221.555 72.5645C221.533 72.4566 221.533 72.0465 221.469 71.8091Z" fill="#007944"></path><path d="M83.0229 73.5146V75.6727C83.0229 75.9533 83.5193 76.3202 83.0229 76.4928C82.5265 76.6655 82.2028 76.687 82.0301 76.2338C81.8575 75.7806 81.5769 75.8885 81.2532 76.1043C80.4792 76.6203 79.5373 76.821 78.6203 76.6655C78.1339 76.6457 77.6717 76.4479 77.3215 76.1097C76.9714 75.7715 76.7577 75.3165 76.7211 74.831C76.6548 74.3503 76.7709 73.8622 77.0465 73.4628C77.3221 73.0633 77.7373 72.7816 78.2102 72.6729C79.095 72.4355 80.0015 72.3492 80.9079 72.1765C81.2316 72.1765 81.728 72.1765 81.7712 71.637C81.8041 71.4082 81.7708 71.1748 81.6752 70.9645C81.5796 70.7541 81.4256 70.5755 81.2316 70.45C80.7908 70.1705 80.2637 70.0603 79.7479 70.1396C79.232 70.219 78.7624 70.4826 78.426 70.8816C78.0807 71.529 77.5843 71.7017 77.1527 71.3348C76.7211 70.9679 77.1527 70.4931 77.4548 70.1694C78.0198 69.678 78.7028 69.3421 79.4369 69.1945C80.1709 69.0469 80.9307 69.0928 81.6417 69.3277C82.9366 69.7594 83.0445 70.8169 83.0445 71.9391V73.5577L83.0229 73.5146ZM81.1021 75.0253C81.3485 74.8011 81.5274 74.5127 81.6189 74.1925C81.7104 73.8723 81.7108 73.5329 81.6201 73.2124C81.3827 72.6081 80.7784 73.2124 80.3036 73.2124C79.9305 73.2185 79.56 73.2766 79.203 73.3851C78.4908 73.5146 77.8865 73.7735 77.9728 74.6368C78.0591 75.5001 78.7066 75.6511 79.4188 75.6511C79.7278 75.6738 80.0382 75.6296 80.3286 75.5216C80.6191 75.4136 80.8829 75.2443 81.1021 75.0253ZM230.296 73.644V75.6295C230.296 75.9101 230.792 76.277 230.296 76.4496C229.799 76.6223 229.475 76.6655 229.303 76.2123C229.13 75.759 228.85 75.8238 228.526 76.0612C227.752 76.5771 226.81 76.7779 225.893 76.6223C225.41 76.6031 224.951 76.4083 224.601 76.0746C224.251 75.7408 224.035 75.291 223.994 74.8094C223.917 74.3273 224.029 73.834 224.306 73.4322C224.583 73.0303 225.005 72.7506 225.483 72.6513C226.346 72.4139 227.274 72.3491 228.159 72.1549C228.483 72.1549 229.001 72.1549 229.044 71.6154C229.08 71.3652 229.038 71.1099 228.921 70.8854C228.805 70.6608 228.622 70.4784 228.396 70.3636C227.94 70.1151 227.41 70.0393 226.902 70.1503C226.395 70.2613 225.945 70.5516 225.634 70.9679C225.289 71.5722 224.814 71.6154 224.425 71.3132C224.037 71.0111 224.425 70.5579 224.641 70.2342C225.176 69.7065 225.845 69.3367 226.576 69.1653C227.307 68.9939 228.072 69.0277 228.785 69.263C230.08 69.6299 230.339 70.6226 230.317 71.788V73.6656L230.296 73.644ZM228.137 75.1979C228.457 74.9902 228.702 74.6848 228.834 74.327C228.966 73.9692 228.979 73.5782 228.871 73.2124C228.634 72.5865 227.943 73.2124 227.447 73.2124C227.074 73.2369 226.705 73.3021 226.346 73.4066C225.677 73.5361 225.138 73.8167 225.202 74.6152C225.267 75.4137 225.914 75.6295 226.627 75.6511C227.184 75.7074 227.741 75.5449 228.181 75.1979H228.137Z" fill="#007944"></path><path d="M140.948 69.1119C143.106 69.1119 143.71 69.781 143.732 71.8744V75.7159C143.732 75.9533 144.163 76.2986 143.732 76.4281C143.3 76.5576 142.912 76.6655 142.739 76.2339C142.566 75.8022 142.199 75.867 141.832 76.1044C141.43 76.3612 140.98 76.5354 140.51 76.6169C140.039 76.6984 139.557 76.6856 139.092 76.5792C138.651 76.53 138.242 76.3283 137.934 76.0091C137.627 75.6898 137.441 75.2731 137.408 74.8311C137.334 74.3734 137.426 73.9043 137.667 73.5085C137.909 73.1127 138.284 72.8163 138.725 72.6729C139.641 72.4062 140.58 72.2256 141.53 72.1334C141.876 72.1334 142.437 72.1334 142.437 71.5291C142.456 71.2976 142.41 71.0653 142.303 70.859C142.196 70.6528 142.033 70.4811 141.832 70.3637C141.382 70.1022 140.851 70.0128 140.339 70.112C139.828 70.2112 139.369 70.4922 139.048 70.9032C138.725 71.4859 138.272 71.6154 137.861 71.3133C137.451 71.0111 137.861 70.4716 138.12 70.1479C138.474 69.7605 138.915 69.4641 139.407 69.2838C139.899 69.1035 140.428 69.0445 140.948 69.1119ZM142.091 74.7879C142.284 74.5664 142.415 74.2985 142.471 74.0108C142.528 73.7231 142.509 73.4256 142.415 73.1477C142.178 72.6729 141.617 73.1477 141.185 73.1477C140.769 73.1776 140.356 73.2499 139.955 73.3635C139.243 73.493 138.638 73.7736 138.768 74.6368C138.897 75.5001 139.545 75.608 140.192 75.608C140.552 75.6413 140.915 75.5836 141.247 75.4403C141.578 75.297 141.869 75.0727 142.091 74.7879ZM168.184 69.1119C170.342 69.1119 170.968 69.781 171.011 71.9391C170.928 73.3083 170.986 74.6823 171.183 76.0396C171.183 76.277 171.183 76.4497 170.968 76.4497C170.752 76.4497 170.191 76.6439 170.061 76.277C169.781 75.5001 169.435 75.9317 169.068 76.1475C168.349 76.5798 167.502 76.7477 166.673 76.6223C165.637 76.4713 164.838 76.0181 164.709 74.8742C164.613 74.3739 164.718 73.8559 165.001 73.4321C165.283 73.0082 165.721 72.7123 166.22 72.6082C167.104 72.3708 168.011 72.306 168.917 72.1118C169.241 72.1118 169.716 72.1118 169.737 71.5507C169.759 71.3419 169.726 71.1312 169.643 70.9386C169.56 70.7459 169.429 70.5777 169.263 70.45C168.817 70.1435 168.272 70.0155 167.737 70.0915C167.201 70.1674 166.714 70.4417 166.371 70.8601C166.047 71.4428 165.594 71.637 165.205 71.3348C164.817 71.0327 165.205 70.4284 165.464 70.0831C165.812 69.7232 166.239 69.4483 166.71 69.2799C167.182 69.1115 167.686 69.054 168.184 69.1119ZM169.543 74.4642C169.667 74.2707 169.745 74.0515 169.771 73.8234C169.797 73.5953 169.771 73.3642 169.694 73.1477C169.435 72.6513 168.982 73.1477 168.594 73.1477C168.136 73.188 167.682 73.2601 167.234 73.3635C166.522 73.493 165.918 73.7951 166.025 74.6584C166.133 75.5217 166.802 75.6296 167.558 75.6512C167.967 75.6621 168.371 75.5564 168.723 75.3462C169.075 75.136 169.359 74.8301 169.543 74.4642ZM98.7772 69.1119C100.935 69.1119 101.583 69.7594 101.626 71.9176C101.626 73.1909 101.626 74.4858 101.755 75.7807C101.755 75.9965 102.101 76.3634 101.583 76.4497C101.065 76.536 100.784 76.6223 100.676 76.277C100.417 75.4785 100.094 75.9317 99.7484 76.126C98.9575 76.6196 98.0068 76.7897 97.0939 76.6008C96.6324 76.5561 96.2015 76.3496 95.8776 76.0178C95.5537 75.686 95.3577 75.2504 95.3242 74.7879C95.2624 74.323 95.3672 73.8512 95.6201 73.4562C95.8729 73.0612 96.2574 72.7684 96.7054 72.6297C97.5882 72.3806 98.4908 72.2073 99.4031 72.1118C99.7916 72.1118 100.374 72.1118 100.353 71.3996C100.373 71.1489 100.308 70.8986 100.166 70.6905C100.025 70.4823 99.8165 70.3289 99.5757 70.2558C98.583 70.04 97.5255 69.8026 96.9428 70.968C96.9031 71.0742 96.84 71.1701 96.7581 71.2487C96.6763 71.3272 96.5778 71.3862 96.47 71.4215C96.3622 71.4567 96.2478 71.4672 96.1354 71.4522C96.023 71.4372 95.9154 71.3971 95.8206 71.3348C95.2594 71.0111 95.8206 70.5795 95.9285 70.2989C96.2559 69.8668 96.692 69.5292 97.1925 69.3207C97.693 69.1121 98.2398 69.0401 98.7772 69.1119ZM99.8779 73.0182C99.0794 73.2125 98.2593 73.3204 97.4608 73.5146C97.215 73.5666 96.9973 73.708 96.8497 73.9113C96.7022 74.1146 96.6354 74.3655 96.6622 74.6152C96.6727 74.8441 96.7558 75.0636 96.8993 75.2421C97.0429 75.4205 97.2395 75.5487 97.4608 75.608C97.7883 75.7264 98.1397 75.7638 98.4848 75.717C98.83 75.6702 99.1587 75.5405 99.4428 75.339C99.727 75.1376 99.9581 74.8704 100.117 74.5602C100.275 74.25 100.356 73.9061 100.353 73.5578C100.31 73.3204 100.482 72.8887 99.8779 73.0182ZM115.309 73.1909C115.438 74.4642 115.891 75.349 116.992 75.5864C117.439 75.7216 117.92 75.6834 118.34 75.4794C118.76 75.2754 119.088 74.9206 119.258 74.4858C119.539 73.9462 120.013 74.1405 120.337 74.3131C120.661 74.4858 120.445 74.9606 120.337 75.2411C119.808 75.9667 119.022 76.4626 118.139 76.6271C117.256 76.7916 116.344 76.6123 115.589 76.126C114.905 75.5492 114.418 74.7743 114.193 73.9082C113.969 73.0422 114.019 72.1278 114.338 71.2917C114.574 70.574 115.057 69.9633 115.701 69.5682C116.345 69.173 117.108 69.019 117.855 69.1335C118.708 69.2314 119.491 69.6534 120.041 70.3123C120.591 70.9711 120.867 71.8163 120.812 72.6729C120.812 73.2988 120.38 73.1693 120.035 73.1693L115.309 73.1909ZM118.589 72.1981C119.474 72.1981 119.452 71.7881 119.172 71.2269C119.024 70.854 118.753 70.5432 118.403 70.3467C118.053 70.1503 117.646 70.08 117.251 70.1479C116.129 70.1479 115.568 70.9032 115.395 72.1765C116.56 72.1765 117.553 72.047 118.589 72.1981Z" fill="#007944"></path><path d="M150.401 73.1903C150.401 74.4205 150.897 75.3485 151.955 75.5643C152.413 75.727 152.917 75.7054 153.36 75.5041C153.802 75.3028 154.15 74.9376 154.329 74.4852C154.588 73.9673 155.106 74.1399 155.429 74.3126C155.753 74.4852 155.429 74.96 155.429 75.2406C154.99 75.8776 154.345 76.3449 153.603 76.5648C152.861 76.7847 152.066 76.7439 151.35 76.4492C150.435 76.0291 149.719 75.2699 149.352 74.3318C148.986 73.3937 148.998 72.3499 149.387 71.4207C149.514 71.0027 149.724 70.6144 150.003 70.2786C150.283 69.9427 150.627 69.6662 151.015 69.4652C151.403 69.2641 151.827 69.1426 152.263 69.1078C152.699 69.073 153.137 69.1256 153.552 69.2625C153.933 69.3675 154.29 69.5476 154.602 69.7922C154.913 70.0367 155.172 70.3409 155.365 70.6869C155.614 71.023 155.781 71.4128 155.852 71.8251C155.923 72.2374 155.897 72.6606 155.775 73.0609C155.537 73.5357 154.631 73.1903 154.005 73.2119C152.775 73.2119 151.609 73.1903 150.401 73.1903ZM153.012 72.176C153.487 72.0681 154.286 72.5213 154.394 71.8739C154.417 71.5195 154.319 71.1677 154.114 70.8772C153.91 70.5866 153.613 70.3747 153.271 70.2768C152.914 70.1167 152.517 70.0681 152.132 70.1374C151.747 70.2067 151.392 70.3907 151.113 70.6653C150.768 71.0322 150.379 71.4638 150.574 71.9602C150.768 72.4566 151.307 72.1113 151.674 72.176C151.926 72.1981 152.178 72.1981 152.43 72.176C152.623 72.1961 152.819 72.1961 153.012 72.176Z" fill="#007944"></path><path d="M40.7661 73.1904H39.277C38.09 73.1904 37.9173 73.4926 38.4784 74.5501C38.6334 74.8563 38.8642 75.1178 39.149 75.3094C39.4337 75.501 39.7628 75.6164 40.1049 75.6445C40.4469 75.6727 40.7905 75.6126 41.1027 75.4701C41.415 75.3276 41.6855 75.1075 41.8883 74.8306C42.0178 74.658 42.0826 74.4206 42.2336 74.3127C42.3831 74.2006 42.5648 74.14 42.7516 74.14C42.9384 74.14 43.1201 74.2006 43.2696 74.3127C43.6364 74.5501 43.2696 74.8522 43.2696 75.068C42.766 75.8404 41.9778 76.3826 41.0764 76.5766C40.1751 76.7706 39.2336 76.6008 38.4569 76.104C37.7692 75.5299 37.2773 74.7561 37.0491 73.8899C36.8209 73.0237 36.8679 72.108 37.1836 71.2697C37.4226 70.5263 37.9257 69.8962 38.5977 69.4986C39.2698 69.1009 40.0642 68.9632 40.8308 69.1115C41.6606 69.2347 42.4123 69.6691 42.9334 70.3265C43.4545 70.9839 43.7058 71.8149 43.6364 72.6509C43.6364 73.1473 43.3343 73.1473 42.989 73.1473L40.7661 73.1904ZM40.7661 72.1761C41.2193 72.1761 41.9531 72.4567 42.061 71.9171C42.1006 71.5835 42.0262 71.2462 41.8499 70.9602C41.6736 70.6742 41.4057 70.4562 41.0898 70.3417C40.7486 70.1617 40.362 70.0863 39.9782 70.1246C39.5944 70.163 39.2304 70.3136 38.9317 70.5575C38.5 70.9028 38.09 71.3992 38.2626 71.9387C38.4353 72.4782 39.0396 72.0898 39.4496 72.1761C39.7009 72.1982 39.9537 72.1982 40.205 72.1761C40.4201 72.2009 40.6373 72.2009 40.8524 72.1761H40.7661Z" fill="#007944"></path><path d="M203.362 72.9964C203.416 73.4748 203.365 73.9592 203.213 74.4158C203.06 74.8723 202.81 75.29 202.478 75.6396C202.147 75.9891 201.744 76.262 201.296 76.4392C200.849 76.6164 200.368 76.6936 199.887 76.6653C199.398 76.6591 198.915 76.5474 198.472 76.3379C198.029 76.1284 197.637 75.826 197.322 75.4513C197.006 75.0765 196.775 74.6382 196.645 74.1662C196.514 73.6942 196.486 73.1995 196.564 72.7159C196.518 72.2349 196.578 71.7497 196.74 71.2945C196.902 70.8394 197.162 70.4253 197.502 70.0816C197.842 69.7379 198.252 69.4729 198.706 69.3053C199.159 69.1378 199.643 69.0717 200.125 69.1118C202.197 69.1765 203.405 70.6225 203.362 72.9964ZM201.204 70.4714C200.78 70.2134 200.281 70.109 199.79 70.1758C199.298 70.2426 198.845 70.4766 198.506 70.8383C198.116 71.4469 197.908 72.1547 197.908 72.8777C197.908 73.6008 198.116 74.3087 198.506 74.9172C198.824 75.3038 199.274 75.5579 199.769 75.6298C200.264 75.7016 200.768 75.586 201.182 75.3057C201.515 75.0576 201.78 74.7301 201.954 74.3531C202.127 73.9761 202.203 73.5616 202.175 73.1475C202.11 71.7016 201.786 70.9246 201.117 70.4714H201.204Z" fill="#007944"></path><path d="M322.939 8.60447C322.836 8.45002 322.715 8.31274 322.578 8.19262C322.424 8.0725 322.269 7.9867 322.081 7.91806C321.892 7.84942 321.703 7.81509 321.497 7.81509C321.12 7.81509 320.811 7.88374 320.553 8.03818C320.296 8.17546 320.09 8.38138 319.918 8.62163C319.764 8.86187 319.644 9.13643 319.575 9.44532C319.506 9.7542 319.472 10.0631 319.472 10.4063C319.472 10.7152 319.506 11.0241 319.575 11.3329C319.644 11.6247 319.764 11.8992 319.918 12.1395C320.073 12.3797 320.296 12.5685 320.553 12.7058C320.811 12.843 321.12 12.9288 321.497 12.9288C321.995 12.9288 322.389 12.7744 322.681 12.4655C322.973 12.1566 323.144 11.7448 323.196 11.2471H324.792C324.758 11.7105 324.637 12.1395 324.466 12.517C324.294 12.8945 324.054 13.2206 323.779 13.478C323.488 13.7354 323.162 13.9413 322.767 14.0786C322.389 14.2159 321.96 14.2845 321.497 14.2845C320.931 14.2845 320.399 14.1815 319.953 13.9928C319.489 13.7869 319.112 13.5123 318.786 13.1691C318.477 12.8259 318.237 12.414 318.065 11.9336C317.893 11.4702 317.808 10.9554 317.808 10.4063C317.808 9.84 317.893 9.3252 318.065 8.84471C318.237 8.36422 318.477 7.95238 318.786 7.59201C319.095 7.23165 319.489 6.95708 319.953 6.75116C320.416 6.54524 320.931 6.44228 321.497 6.44228C321.909 6.44228 322.304 6.49376 322.664 6.61388C323.024 6.734 323.368 6.9056 323.642 7.12869C323.934 7.35177 324.174 7.64349 324.363 7.96954C324.552 8.31274 324.672 8.69027 324.723 9.11927H323.127C323.093 8.93051 323.041 8.75891 322.939 8.60447Z" fill="#333333"></path><path d="M327.126 12.7917C327.349 13.0148 327.675 13.1177 328.087 13.1177C328.396 13.1177 328.653 13.0491 328.859 12.8947C329.082 12.7402 329.202 12.5858 329.254 12.4142H330.558C330.352 13.0663 330.026 13.5296 329.597 13.8041C329.168 14.0787 328.636 14.216 328.018 14.216C327.589 14.216 327.212 14.1474 326.868 14.0101C326.525 13.8728 326.234 13.684 325.993 13.4266C325.753 13.1692 325.564 12.8775 325.444 12.5171C325.307 12.1739 325.255 11.7792 325.255 11.3674C325.255 10.9555 325.324 10.578 325.461 10.2348C325.599 9.89161 325.787 9.58273 326.028 9.32532C326.268 9.06792 326.56 8.862 326.903 8.72472C327.246 8.57027 327.623 8.50163 328.035 8.50163C328.499 8.50163 328.893 8.58743 329.237 8.7762C329.58 8.9478 329.854 9.18804 330.077 9.49693C330.3 9.80581 330.455 10.149 330.558 10.5265C330.661 10.9041 330.695 11.3159 330.661 11.7278H326.748C326.783 12.2254 326.903 12.5686 327.126 12.7917ZM328.825 9.94309C328.653 9.75433 328.379 9.65137 328.018 9.65137C327.778 9.65137 327.589 9.68569 327.418 9.77149C327.263 9.85729 327.143 9.96025 327.04 10.0632C326.954 10.1833 326.886 10.3035 326.834 10.4407C326.8 10.578 326.765 10.6981 326.765 10.8011H329.185C329.116 10.4236 328.996 10.1319 328.825 9.94309Z" fill="#333333"></path><path d="M332.771 8.67295V9.68541H332.789C332.857 9.51381 332.96 9.35937 333.063 9.22208C333.183 9.0848 333.321 8.96468 333.475 8.86172C333.629 8.75876 333.801 8.69012 333.973 8.62148C334.144 8.57 334.333 8.53568 334.522 8.53568C334.625 8.53568 334.728 8.55283 334.848 8.58715V9.97713C334.779 9.95997 334.693 9.94281 334.59 9.94281C334.487 9.92565 334.402 9.92565 334.316 9.92565C334.041 9.92565 333.818 9.97713 333.629 10.0629C333.441 10.1487 333.286 10.286 333.166 10.4405C333.046 10.5949 332.96 10.7837 332.926 10.9896C332.874 11.1955 332.857 11.4186 332.857 11.676V14.0956H331.364V8.67295H332.771Z" fill="#333333"></path><path d="M338.829 8.67326V9.66855H337.731V12.3627C337.731 12.6201 337.765 12.7746 337.851 12.8604C337.937 12.9462 338.108 12.9805 338.349 12.9805C338.434 12.9805 338.52 12.9805 338.589 12.9633C338.657 12.9633 338.743 12.9462 338.812 12.929V14.0787C338.692 14.0959 338.537 14.1131 338.4 14.1131C338.246 14.1131 338.091 14.1302 337.954 14.1302C337.731 14.1302 337.508 14.1131 337.302 14.0787C337.096 14.0444 336.907 13.9929 336.753 13.89C336.598 13.8042 336.478 13.6669 336.375 13.4953C336.289 13.3237 336.238 13.1006 336.238 12.8432V9.63423H335.328V8.63894H336.238V7.00871H337.731V8.63894H338.829V8.67326Z" fill="#333333"></path><path d="M339.584 6.59676H341.077V7.83229H339.584V6.59676ZM341.077 14.0958H339.584V8.67314H341.077V14.0958Z" fill="#333333"></path><path d="M341.695 9.66799V8.67269H342.587V8.26085C342.587 7.78036 342.742 7.38568 343.034 7.07679C343.342 6.76791 343.789 6.61346 344.406 6.61346C344.544 6.61346 344.664 6.61347 344.801 6.63063C344.938 6.64779 345.058 6.64779 345.196 6.66495V7.78036C345.024 7.7632 344.835 7.74604 344.647 7.74604C344.441 7.74604 344.303 7.79752 344.218 7.88332C344.132 7.96912 344.08 8.14073 344.08 8.36381V8.68985H345.11V9.68515H344.08V14.0953H342.587V9.66799H341.695Z" fill="#333333"></path><path d="M346.002 6.59676H347.495V7.83229H346.002V6.59676ZM347.495 14.0958H346.002V8.67314H347.495V14.0958Z" fill="#333333"></path><path d="M349.846 12.7917C350.069 13.0148 350.395 13.1177 350.807 13.1177C351.116 13.1177 351.374 13.0491 351.579 12.8947C351.803 12.7402 351.923 12.5858 351.974 12.4142H353.278C353.072 13.0663 352.746 13.5296 352.317 13.8041C351.888 14.0787 351.356 14.216 350.739 14.216C350.31 14.216 349.932 14.1474 349.589 14.0101C349.246 13.8728 348.954 13.684 348.714 13.4266C348.473 13.1692 348.285 12.8775 348.165 12.5171C348.027 12.1739 347.976 11.7792 347.976 11.3674C347.976 10.9555 348.044 10.578 348.182 10.2348C348.319 9.89161 348.508 9.58273 348.748 9.32532C348.988 9.06792 349.28 8.862 349.623 8.72472C349.966 8.57027 350.344 8.50163 350.756 8.50163C351.219 8.50163 351.614 8.58743 351.957 8.7762C352.3 8.9478 352.575 9.18804 352.798 9.49693C353.021 9.80581 353.175 10.149 353.278 10.5265C353.381 10.9041 353.416 11.3159 353.381 11.7278H349.469C349.503 12.2254 349.623 12.5686 349.846 12.7917ZM351.528 9.94309C351.356 9.75433 351.082 9.65137 350.721 9.65137C350.481 9.65137 350.292 9.68569 350.121 9.77149C349.966 9.85729 349.829 9.96025 349.743 10.0632C349.64 10.1833 349.589 10.3035 349.537 10.4407C349.503 10.578 349.469 10.6981 349.469 10.8011H351.888C351.837 10.4236 351.7 10.1319 351.528 9.94309Z" fill="#333333"></path><path d="M357.911 13.3922C357.74 13.6839 357.499 13.8899 357.225 14.0271C356.933 14.1644 356.624 14.2159 356.264 14.2159C355.852 14.2159 355.509 14.1301 355.2 13.9757C354.891 13.8212 354.634 13.5981 354.445 13.3407C354.239 13.0662 354.102 12.7573 353.999 12.4141C353.896 12.0709 353.844 11.6933 353.844 11.3158C353.844 10.9555 353.896 10.5951 353.999 10.269C354.102 9.92584 354.256 9.63412 354.445 9.37671C354.651 9.11931 354.891 8.91339 355.2 8.75894C355.509 8.6045 355.852 8.5187 356.247 8.5187C356.573 8.5187 356.882 8.58734 357.156 8.72462C357.448 8.86191 357.671 9.06783 357.843 9.32523H357.86V6.59676H359.353V14.0958H357.928V13.4094H357.911V13.3922ZM357.843 10.7152C357.808 10.5093 357.722 10.3205 357.619 10.1661C357.517 10.0116 357.379 9.87436 357.225 9.78856C357.07 9.6856 356.864 9.63412 356.624 9.63412C356.384 9.63412 356.178 9.6856 356.006 9.78856C355.835 9.89152 355.698 10.0116 355.595 10.1832C355.492 10.3377 355.423 10.5264 355.371 10.7324C355.32 10.9383 355.303 11.1614 355.303 11.3845C355.303 11.5904 355.32 11.7963 355.371 12.0194C355.423 12.2253 355.509 12.4141 355.612 12.5857C355.715 12.7573 355.852 12.8774 356.024 12.9804C356.195 13.0833 356.384 13.1348 356.624 13.1348C356.864 13.1348 357.07 13.0833 357.242 12.9804C357.414 12.8774 357.534 12.7573 357.637 12.5857C357.74 12.4141 357.808 12.2425 357.843 12.0194C357.877 11.8135 357.911 11.5904 357.911 11.3673C357.911 11.1442 357.894 10.9211 357.843 10.7152Z" fill="#333333"></path><path d="M329.648 26.2796H338.332C340.442 26.2796 343.222 26.2796 344.664 27.1548C346.242 28.0986 347.478 29.7975 347.478 32.1484C347.478 34.6881 346.139 36.6101 343.926 37.5196V37.5882C346.877 38.1888 348.49 40.4025 348.49 43.3541C348.49 46.8719 345.968 50.2353 341.214 50.2353H329.648V26.2796ZM332.84 36.5758H339.224C342.845 36.5758 344.32 35.2716 344.32 32.749C344.32 29.42 341.969 28.9566 339.224 28.9566H332.84V36.5758ZM332.84 47.5412H340.82C343.565 47.5412 345.316 45.8595 345.316 43.2511C345.316 40.1279 342.793 39.2528 340.116 39.2528H332.84V47.5412Z" fill="#333333"></path><path d="M356.641 38.2571C356.641 48.313 348.49 56.4641 338.417 56.4641C328.361 56.4641 320.21 48.313 320.21 38.2571C320.21 28.2012 328.361 20.0501 338.417 20.0501C348.49 20.0501 356.641 28.2012 356.641 38.2571ZM338.434 17.2701C326.851 17.2701 317.447 26.6568 317.447 38.2571C317.447 49.8403 326.834 59.2441 338.434 59.2441C350.017 59.2441 359.421 49.8574 359.421 38.2571C359.421 26.6568 350.017 17.2701 338.434 17.2701Z" fill="#333333"></path><path d="M321.325 63.7575C321.257 63.2255 320.742 62.8308 320.158 62.8308C319.112 62.8308 318.717 63.7232 318.717 64.6498C318.717 65.525 319.112 66.4173 320.158 66.4173C320.879 66.4173 321.274 65.9197 321.36 65.2333H322.492C322.372 66.5546 321.463 67.3955 320.158 67.3955C318.511 67.3955 317.55 66.1771 317.55 64.6327C317.55 63.0539 318.511 61.8355 320.158 61.8355C321.325 61.8355 322.303 62.5219 322.441 63.7403H321.325V63.7575Z" fill="#333333"></path><path d="M324.929 63.3459C326.147 63.3459 326.92 64.1524 326.92 65.3708C326.92 66.5892 326.147 67.3957 324.929 67.3957C323.728 67.3957 322.938 66.5892 322.938 65.3708C322.956 64.1353 323.728 63.3459 324.929 63.3459ZM324.929 66.5892C325.65 66.5892 325.873 65.9714 325.873 65.3708C325.873 64.753 325.65 64.1353 324.929 64.1353C324.208 64.1353 324.002 64.753 324.002 65.3708C324.002 65.9714 324.225 66.5892 324.929 66.5892Z" fill="#333333"></path><path d="M327.538 63.4489H328.533V64.1696H328.55C328.739 63.6891 329.271 63.3459 329.768 63.3459C329.837 63.3459 329.923 63.3631 329.992 63.3802V64.3584C329.889 64.3412 329.734 64.324 329.614 64.324C328.842 64.324 328.567 64.8732 328.567 65.5596V67.2928H327.521V63.4489H327.538Z" fill="#333333"></path><path d="M330.575 63.4489H331.57V63.9465H331.588C331.845 63.5347 332.257 63.3459 332.737 63.3459C333.939 63.3459 334.488 64.324 334.488 65.4051C334.488 66.4347 333.921 67.3957 332.806 67.3957C332.343 67.3957 331.914 67.1898 331.656 66.8123H331.622V68.6484H330.575V63.4489ZM333.424 65.3708C333.424 64.753 333.184 64.1353 332.497 64.1353C331.811 64.1353 331.588 64.753 331.588 65.3708C331.588 65.9886 331.828 66.5892 332.514 66.5892C333.201 66.5892 333.424 66.0057 333.424 65.3708Z" fill="#333333"></path><path d="M336.975 63.3459C338.194 63.3459 338.966 64.1524 338.966 65.3708C338.966 66.5892 338.176 67.3957 336.975 67.3957C335.774 67.3957 334.985 66.5892 334.985 65.3708C334.985 64.1353 335.774 63.3459 336.975 63.3459ZM336.975 66.5892C337.696 66.5892 337.919 65.9714 337.919 65.3708C337.919 64.753 337.696 64.1353 336.975 64.1353C336.254 64.1353 336.049 64.753 336.049 65.3708C336.049 65.9714 336.254 66.5892 336.975 66.5892Z" fill="#333333"></path><path d="M339.67 63.4489H340.665V64.1696H340.682C340.871 63.6891 341.403 63.3459 341.9 63.3459C341.969 63.3459 342.072 63.3631 342.123 63.3802V64.3584C342.02 64.3412 341.866 64.324 341.746 64.324C340.974 64.324 340.699 64.8732 340.699 65.5596V67.2928H339.652V63.4489H339.67Z" fill="#333333"></path><path d="M342.518 64.6329C342.587 63.6376 343.462 63.3459 344.32 63.3459C345.092 63.3459 346.002 63.5175 346.002 64.4442V66.4347C346.002 66.7779 346.036 67.1383 346.139 67.2928H345.075C345.041 67.1726 345.006 67.0525 345.006 66.9152C344.68 67.2584 344.183 67.3957 343.719 67.3957C342.999 67.3957 342.415 67.0354 342.415 66.246C342.415 65.3708 343.067 65.1649 343.719 65.0791C344.372 64.9761 344.972 65.0104 344.972 64.5814C344.972 64.1353 344.663 64.0666 344.286 64.0666C343.891 64.0666 343.617 64.2211 343.582 64.6501H342.518V64.6329ZM344.955 65.4051C344.783 65.5596 344.406 65.5767 344.08 65.6282C343.754 65.6969 343.462 65.7998 343.462 66.1945C343.462 66.5892 343.771 66.6921 344.114 66.6921C344.938 66.6921 344.972 66.0401 344.972 65.817V65.4051H344.955Z" fill="#333333"></path><path d="M348.164 63.4485H348.936V64.1521H348.164V66.0569C348.164 66.4172 348.25 66.503 348.61 66.503C348.73 66.503 348.833 66.503 348.936 66.4687V67.2924C348.764 67.3267 348.524 67.3267 348.318 67.3267C347.666 67.3267 347.117 67.1723 347.117 66.4172V64.1521H346.482V63.4485H347.117V62.2988H348.164V63.4485Z" fill="#333333"></path><path d="M350.515 62.8481H349.469V61.9729H350.515V62.8481ZM349.469 63.4487H350.515V67.2926H349.469V63.4487Z" fill="#333333"></path><path d="M353.072 63.3459C354.29 63.3459 355.063 64.1524 355.063 65.3708C355.063 66.5892 354.273 67.3957 353.072 67.3957C351.871 67.3957 351.099 66.5892 351.099 65.3708C351.082 64.1353 351.871 63.3459 353.072 63.3459ZM353.072 66.5892C353.793 66.5892 354.016 65.9714 354.016 65.3708C354.016 64.753 353.81 64.1353 353.072 64.1353C352.351 64.1353 352.145 64.753 352.145 65.3708C352.145 65.9714 352.351 66.5892 353.072 66.5892Z" fill="#333333"></path><path d="M355.732 63.4489H356.727V63.9808H356.745C357.019 63.5518 357.465 63.3459 357.912 63.3459C359.027 63.3459 359.319 63.9808 359.319 64.9246V67.2928H358.272V65.1306C358.272 64.4956 358.083 64.1868 357.603 64.1868C357.036 64.1868 356.779 64.5128 356.779 65.285V67.2928H355.732V63.4489Z" fill="#333333"></path><path d="M359.353 70.5528H317.533V73.2298H359.353V70.5528Z" fill="#333333"></path><path d="M359.953 61.8185H359.713V62.4877H359.593V61.8185H359.353V61.7155H359.97V61.8185H359.953ZM360.983 62.4877H360.863V61.8357L360.605 62.4877H360.519L360.262 61.8357V62.4877H360.125V61.7155H360.331L360.571 62.299L360.794 61.7155H361V62.4877H360.983Z" fill="#333333"></path><rect x="294.935" width="2.35948" height="80.2223" fill="#007944"></rect></svg> 