<svg width="32" height="32" viewBox="0 0 32 32" fill="none" xmlns="http://www.w3.org/2000/svg">
<path d="M11.5475 25.3275C11.7859 25.3275 11.9809 25.2516 12.1325 25.1C12.2841 24.9484 12.36 24.7534 12.36 24.515V16.2925C12.9884 16.2059 13.5246 15.9187 13.9687 15.4312C14.4129 14.9437 14.635 14.3859 14.635 13.7575V8.7525C14.635 8.53585 14.5591 8.3571 14.4075 8.21625C14.2559 8.07539 14.0716 8.005 13.855 8.005C13.6384 8.005 13.4596 8.07539 13.3187 8.21625C13.1779 8.3571 13.1075 8.53585 13.1075 8.7525V12.6525H12.3925V8.7525C12.3925 8.53585 12.3221 8.3571 12.1812 8.21625C12.0404 8.07539 11.8616 8.005 11.645 8.005C11.4284 8.005 11.2496 8.07539 11.1087 8.21625C10.9679 8.3571 10.8975 8.53585 10.8975 8.7525V12.6525H9.955V8.7525C9.955 8.53585 9.8846 8.3571 9.74375 8.21625C9.60289 8.07539 9.42414 8.005 9.2075 8.005C8.99085 8.005 8.8121 8.07539 8.67125 8.21625C8.53039 8.3571 8.46 8.53585 8.46 8.7525V13.7575C8.46 14.3859 8.67664 14.9437 9.11 15.4312C9.54335 15.9187 10.085 16.2059 10.735 16.2925V24.515C10.735 24.7534 10.8109 24.9484 10.9625 25.1C11.1141 25.2516 11.3091 25.3275 11.5475 25.3275ZM19.77 25.3275C20.0084 25.3275 20.2034 25.2516 20.355 25.1C20.5066 24.9484 20.5825 24.7534 20.5825 24.515V16.6825C21.3409 16.3791 21.9366 15.8375 22.37 15.0575C22.8034 14.2775 23.02 13.3675 23.02 12.3275C23.02 11.0925 22.7221 10.0634 22.1262 9.24C21.5304 8.41665 20.7775 8.005 19.8675 8.005C18.9575 8.005 18.21 8.41665 17.625 9.24C17.04 10.0634 16.7475 11.0925 16.7475 12.3275C16.7475 13.4325 16.9425 14.3641 17.3325 15.1225C17.7225 15.8809 18.2641 16.4009 18.9575 16.6825V24.515C18.9575 24.7534 19.0334 24.9484 19.185 25.1C19.3366 25.2516 19.5316 25.3275 19.77 25.3275ZM4.95 29C4.43 29 3.975 28.805 3.585 28.415C3.195 28.025 3 27.57 3 27.05V4.95C3 4.43 3.195 3.975 3.585 3.585C3.975 3.195 4.43 3 4.95 3H27.05C27.57 3 28.025 3.195 28.415 3.585C28.805 3.975 29 4.43 29 4.95V27.05C29 27.57 28.805 28.025 28.415 28.415C28.025 28.805 27.57 29 27.05 29H4.95Z" fill="#A1BD71"/>
</svg>
