<svg width="45" height="45" viewBox="0 0 45 45" fill="none" xmlns="http://www.w3.org/2000/svg">
<path d="M43.2141 28.877L39.9967 28.506C39.9365 28.4964 39.8811 28.4602 39.8498 28.4072L38.5422 25.5475C38.2339 24.8031 37.509 24.3164 36.7047 24.314C36.3122 24.3212 35.9269 24.4272 35.5825 24.6223V22.9672C35.7053 19.5123 32.8324 17.4404 30.5278 15.7757C30.0341 15.4191 29.5404 15.0601 29.0973 14.7036C28.7433 14.4 28.2207 14.4 27.8643 14.7036C26.3833 16.007 24.4856 16.7346 22.5133 16.7514C20.5483 16.7562 18.6482 16.031 17.1865 14.7156C16.8373 14.3952 16.3027 14.3952 15.9535 14.7156C15.4839 15.0987 14.9541 15.4793 14.4123 15.8624C12.1076 17.5272 9.24673 19.563 9.2347 22.9676V24.6227C8.9385 24.4541 8.59898 24.377 8.25941 24.3986C7.45507 24.4035 6.7302 24.8901 6.42196 25.6322L5.12633 28.4943H5.12874C5.09262 28.5522 5.03483 28.5883 4.96739 28.5931L1.76213 28.9641C0.967404 29.0461 0.297954 29.5953 0.0595566 30.3567C-0.123468 31.0987 0.122168 31.8818 0.702559 32.3804L3.16853 34.515C3.21669 34.5583 3.23837 34.6234 3.22873 34.686L2.61224 37.8084C2.47979 38.5673 2.79767 39.3359 3.4262 39.7816C4.07882 40.2562 4.94819 40.314 5.65858 39.9285L8.44482 38.3866C8.51947 38.3505 8.60617 38.3505 8.67841 38.3866L11.5273 39.9285C12.2377 40.3285 13.1191 40.2706 13.7717 39.7816C14.4002 39.3094 14.694 38.5143 14.5231 37.7457L14.2148 36.3508V36.3532C14.3136 36.664 14.4918 36.9459 14.7326 37.1675L17.0757 39.3142V39.3118C17.0998 39.36 17.0998 39.4154 17.0757 39.4611L16.3846 42.545C16.2064 43.3135 16.5026 44.1134 17.1384 44.5808C17.49 44.853 17.9234 45 18.3714 45C18.7422 45 19.1083 44.9012 19.431 44.7157L22.2799 43.1738C22.3473 43.1377 22.4316 43.1377 22.5014 43.1738L25.2998 44.7157C26.0077 45.106 26.8795 45.0482 27.5321 44.5687C28.1727 44.1134 28.4906 43.328 28.3461 42.557L27.7657 39.4612C27.7609 39.3937 27.7874 39.3287 27.8404 39.2877L30.3063 37.1532C30.5688 36.9122 30.7639 36.6063 30.8723 36.2666L30.552 37.7218C30.3593 38.4879 30.6338 39.295 31.2551 39.7816C31.9054 40.2755 32.7868 40.3382 33.4995 39.943L36.3484 38.4011C36.4159 38.3626 36.5001 38.3626 36.57 38.4011L39.3683 39.943C40.0811 40.3237 40.9505 40.2611 41.6007 39.7816C42.2461 39.3263 42.564 38.5337 42.4146 37.7579L41.8463 34.6741C41.8198 34.6211 41.8198 34.556 41.8463 34.503L44.3123 32.3684C44.9167 31.8384 45.1479 31 44.9047 30.2339C44.6566 29.4894 43.9967 28.959 43.2141 28.877ZM12.0331 35.0447L12.7122 38.1285C12.7459 38.1767 12.7459 38.2418 12.7122 38.2875C12.6327 38.3405 12.5316 38.3405 12.4521 38.2875L9.60325 36.7456C9.295 36.5866 8.95303 36.4999 8.60626 36.4999C8.25707 36.5023 7.9127 36.5914 7.60686 36.7601L4.75799 38.3381C4.68574 38.3911 4.5846 38.3911 4.51235 38.3381C4.44492 38.302 4.41121 38.2273 4.42566 38.1526L5.00603 35.0568C5.12885 34.3557 4.87599 33.6377 4.33899 33.1703L1.93565 31.0116C1.87304 30.9779 1.84655 30.9032 1.87304 30.8382C1.88508 30.7659 1.94769 30.7129 2.02235 30.7153L5.22762 30.3443C5.95009 30.2503 6.56898 29.7805 6.85553 29.1108L8.16317 26.2486C8.16317 26.1739 8.24986 26.1498 8.33656 26.1498H8.33415C8.42566 26.145 8.51236 26.1932 8.55571 26.2751L9.96205 29.1373V29.1348C10.2751 29.7757 10.894 30.207 11.602 30.2841L14.8194 30.6551V30.6527C14.9085 30.6575 14.988 30.7153 15.0169 30.802C15.053 30.8478 15.053 30.9129 15.0169 30.9611L12.6497 33.1703C12.1126 33.6473 11.8766 34.3797 12.0332 35.0809L12.0331 35.0447ZM29.023 35.7843L26.557 37.9189C26.02 38.3911 25.7696 39.1139 25.9044 39.8174L26.4848 42.9012C26.492 42.9759 26.4583 43.0457 26.3981 43.0867C26.3186 43.1397 26.2175 43.1397 26.138 43.0867L23.3397 41.5448C22.7208 41.2051 21.9718 41.2051 21.3553 41.5448L18.4944 43.0867C18.4198 43.1397 18.321 43.1397 18.2464 43.0867C18.2223 43.0409 18.2223 42.9855 18.2464 42.9397L18.9375 39.8439C19.0965 39.1428 18.8653 38.4128 18.3331 37.9309L16.002 35.7843H16.0044C15.9683 35.7361 15.9683 35.671 16.0044 35.6253C16.0309 35.5361 16.1104 35.4783 16.2019 35.4759L19.4192 35.1049V35.1073C20.1248 35.0278 20.7437 34.5965 21.0592 33.958L22.403 31.1465C22.4391 31.0645 22.5234 31.0164 22.6125 31.0236C22.7112 31.0236 22.7594 31.0236 22.7979 31.1224L24.1056 33.9845H24.1032C24.3849 34.6543 24.999 35.1241 25.7191 35.2181L28.9243 35.5891V35.5867C28.9966 35.5915 29.0592 35.6373 29.0809 35.7071C29.1049 35.7746 29.0809 35.8517 29.0231 35.8951L29.023 35.7843ZM30.8966 35.9578H30.899C30.9712 35.6566 30.9712 35.3434 30.899 35.0447C30.6582 34.2761 29.9839 33.7244 29.1844 33.6377L25.9791 33.2667V33.2691C25.9165 33.2595 25.8635 33.2233 25.8298 33.1703L24.5222 30.3081H24.5246C24.2139 29.5709 23.4987 29.0866 22.6992 29.0746C21.9045 29.0722 21.1772 29.5203 20.8256 30.2335L19.4193 33.0956C19.3759 33.1607 19.3109 33.204 19.2339 33.2185L16.0165 33.5895C15.205 33.6787 14.521 34.2328 14.2658 35.0086C14.2032 35.288 14.2032 35.5771 14.2658 35.859L13.9816 34.6255C13.96 34.5821 13.96 34.5315 13.9816 34.4906L16.226 32.3801C16.8016 31.8476 17.0135 31.0285 16.7679 30.2841C16.5222 29.5059 15.8407 28.9493 15.0292 28.865L11.8118 28.494C11.7324 28.4867 11.6625 28.441 11.6264 28.3711L11.1327 27.3833V22.931C11.1327 20.4639 13.3771 18.8979 15.5469 17.3319L16.5704 16.5923V16.5899C18.2754 17.8981 20.3657 18.6064 22.5138 18.6016C24.6787 18.6016 26.7835 17.9005 28.5174 16.6043L29.4421 17.2693C31.5878 18.8232 33.8202 20.4398 33.7335 22.931V27.6917L33.3891 28.3831C33.3506 28.453 33.2831 28.4988 33.2037 28.506L29.9863 28.877C29.1748 28.9613 28.4932 29.5179 28.2476 30.2961C28.0092 31.0381 28.226 31.8524 28.8015 32.3801L31.1447 34.5267C31.1664 34.5725 31.1664 34.6279 31.1447 34.6737L30.8966 35.9578ZM43.0914 31.0237L40.6881 33.1703C40.1511 33.6377 39.8982 34.3557 40.021 35.0568L40.6014 38.1526C40.6159 38.2273 40.5822 38.302 40.5147 38.3381C40.4425 38.3911 40.3413 38.3911 40.2691 38.3381L37.4708 36.8082C37.1649 36.6396 36.8206 36.5504 36.4714 36.5504C36.1222 36.5504 35.7802 36.6348 35.472 36.7962L32.6231 38.3381C32.546 38.3911 32.4425 38.3911 32.3654 38.3381C32.3293 38.2899 32.3293 38.2249 32.3654 38.1767L33.0446 35.0929H33.0422C33.1915 34.3798 32.9362 33.6401 32.3775 33.1703L30.0584 31.0236C30.0247 30.9754 30.0247 30.9104 30.0584 30.8622C30.0898 30.7779 30.1668 30.7201 30.2559 30.7152L33.4733 30.3442H33.4757C34.1813 30.2695 34.8001 29.8359 35.1157 29.1974L36.522 26.3352H36.5196C36.5605 26.2557 36.6424 26.2076 36.7291 26.2124C36.8279 26.2124 36.8905 26.2124 36.9145 26.3112L38.1716 29.1733C38.4558 29.8407 39.0699 30.308 39.7875 30.4068L42.9928 30.7779V30.7755C43.0699 30.7755 43.1373 30.8261 43.1541 30.9007C43.1541 30.9441 43.1301 30.9875 43.0915 31.0116L43.0914 31.0237Z" fill="black"/>
<path d="M22.8217 8.79059e-05C18.735 0.0265897 15.4164 3.3128 15.3492 7.40127C15.3107 9.35759 16.062 11.2488 17.4347 12.6438C18.7929 14.0315 20.6568 14.8121 22.6002 14.8025C26.6821 14.7639 29.9907 11.4849 30.0727 7.40127C30.1112 5.44496 29.3599 3.55371 27.9872 2.15877C26.629 0.771045 24.7651 -0.00953364 22.8217 8.79059e-05ZM22.6001 12.9762C21.1408 12.981 19.7417 12.3932 18.723 11.3452C17.7067 10.2996 17.1552 8.88534 17.1986 7.42533C17.2515 4.34872 19.7464 1.87684 22.8216 1.85032C24.2666 1.84551 25.6537 2.42372 26.6675 3.4549C27.6934 4.50772 28.2545 5.92918 28.2232 7.40121C28.1678 10.4778 25.6754 12.9497 22.6001 12.9762Z" fill="black"/>
<path d="M16.1753 23.584C15.6671 23.584 15.2529 23.9887 15.2385 24.4971V27.5929C15.2361 27.8387 15.33 28.0772 15.501 28.2507C15.672 28.4265 15.9056 28.5277 16.1512 28.5325C16.3944 28.535 16.6256 28.441 16.799 28.2723C16.9748 28.1037 17.0736 27.8724 17.076 27.6315V24.5235C17.0832 24.0152 16.681 23.5984 16.1753 23.584Z" fill="black"/>
<path d="M28.6038 28.5329C28.847 28.5353 29.0806 28.4413 29.254 28.2727C29.4274 28.104 29.5261 27.8728 29.5285 27.6318V24.5239C29.5333 24.2781 29.437 24.0396 29.266 23.8662C29.0951 23.6903 28.8615 23.5891 28.6158 23.5843C28.1101 23.5843 27.6983 23.9914 27.6911 24.4974V27.5933C27.6887 27.839 27.7826 28.0775 27.9536 28.251C28.1246 28.4268 28.3581 28.5281 28.6038 28.5329Z" fill="black"/>
</svg>
