<svg width="45" height="45" viewBox="0 0 45 45" fill="none" xmlns="http://www.w3.org/2000/svg">
<path d="M17.5997 13.7045C18.7641 14.1982 20.0167 14.45 21.2815 14.4445C22.9515 14.4445 24.7269 14.0297 26.5876 13.2027C27.1295 13.8797 27.5402 14.652 27.7987 15.4798C27.804 15.4956 27.8119 15.5096 27.8181 15.5255V23.5159C27.8181 23.6907 27.8875 23.8583 28.0112 23.982C28.1348 24.1056 28.3024 24.175 28.4773 24.175C28.6521 24.175 28.8198 24.1056 28.9434 23.982C29.067 23.8583 29.1365 23.6907 29.1365 23.5159V14.8153C29.1313 13.9484 29.2875 13.088 29.597 12.2781C30.1883 12.3441 30.7828 12.3778 31.3777 12.3792C34.1639 12.3792 36.4905 11.5882 38.3134 10.0204C42.2378 6.64125 42.3644 0.917354 42.3644 0.674794C42.366 0.587941 42.3504 0.501622 42.3186 0.420801C42.2867 0.33998 42.2392 0.266251 42.1788 0.203853C42.1183 0.141456 42.0461 0.0916201 41.9664 0.0572121C41.8866 0.0228042 41.8008 0.00450258 41.7139 0.00335961C35.9482 -0.0774938 31.9578 1.30141 29.8484 4.09964C27.6274 7.04463 28.2663 10.5565 28.494 11.5083C28.2937 11.9696 28.1368 12.4486 28.0255 12.939C27.8361 12.6579 27.6291 12.3891 27.4059 12.134C27.3347 11.1646 26.8724 7.62115 23.8603 5.4926C20.9985 3.47127 16.7761 3.37108 11.31 5.2017C11.1451 5.25811 11.0093 5.37753 10.9322 5.53382C10.8551 5.69011 10.8431 5.87057 10.8987 6.03573C10.9717 6.2651 12.8323 11.6814 17.5997 13.7045ZM30.9093 4.8862C32.6724 2.55727 36.0651 1.36029 40.9985 1.32162C40.8438 2.85344 40.1881 6.67113 37.445 9.02642C35.637 10.5785 33.2173 11.2446 30.243 11.0135C30.797 10.1791 31.491 9.44681 32.2945 8.8489C33.2872 8.0944 34.3927 7.50122 35.5702 7.09121C35.7341 7.03739 35.8704 6.92146 35.9498 6.76831C36.0292 6.61516 36.0454 6.43699 35.9949 6.27205C35.9444 6.1071 35.8312 5.96853 35.6797 5.88606C35.5282 5.8036 35.3503 5.78381 35.1844 5.83096C33.8698 6.27729 32.6355 6.93219 31.5289 7.77056C30.7938 8.32058 30.1353 8.96605 29.5707 9.68995C29.5021 8.37696 29.6858 6.50151 30.9093 4.8862ZM23.0868 6.56127C24.7427 7.72749 25.4889 9.46145 25.8255 10.7349C25.067 10.2178 24.2429 9.80404 23.3751 9.50451C22.0656 9.04392 20.6909 8.79559 19.303 8.76892C19.1282 8.77102 18.9614 8.84247 18.8392 8.96757C18.7171 9.09266 18.6496 9.26115 18.6517 9.43596C18.6538 9.61077 18.7253 9.77759 18.8504 9.89972C18.9755 10.0218 19.144 10.0893 19.3188 10.0872C20.5648 10.1185 21.7981 10.3457 22.9734 10.7604C23.9209 11.0857 24.8049 11.5724 25.5865 12.199C22.8231 13.324 20.3129 13.4294 18.1209 12.497C14.7932 11.0855 13.0081 7.64928 12.3929 6.23698C17.1031 4.77107 20.6996 4.88005 23.0886 6.56127H23.0868Z" fill="black"/>
<path d="M44.4079 25.785C44.0575 25.4416 43.5912 25.2421 43.1009 25.2259C42.6106 25.2096 42.132 25.3777 41.7597 25.6971L33.1787 32.9766C32.6233 33.4496 31.9109 33.6976 31.1818 33.6717L18.7379 33.2525C18.4527 33.2438 18.1821 33.1242 17.9838 32.919C17.7855 32.7138 17.6751 32.4393 17.6761 32.154V31.501H23.3584C24.0317 31.4641 24.6653 31.1706 25.1289 30.681C25.5925 30.1913 25.8508 29.5427 25.8508 28.8684C25.8508 28.1942 25.5925 27.5455 25.1289 27.0559C24.6653 26.5662 24.0317 26.2728 23.3584 26.2359H12.8324C12.1669 26.2369 11.5109 26.3931 10.9163 26.692L5.5478 29.4023C5.37054 28.9492 5.06092 28.56 4.65927 28.2854C4.25762 28.0107 3.78256 27.8634 3.29598 27.8626H0.659197C0.484367 27.8626 0.316698 27.932 0.193074 28.0557C0.0694509 28.1793 0 28.3469 0 28.5217L0 44.3409C0 44.5157 0.0694509 44.6833 0.193074 44.8069C0.316698 44.9306 0.484367 45 0.659197 45H3.29598C3.90292 44.9992 4.48737 44.7703 4.93345 44.3588C5.37953 43.9472 5.65464 43.3831 5.70425 42.7783L10.4505 41.1779C11.5783 40.7977 12.7901 40.7408 13.9486 41.0136L20.6777 42.5999C22.8061 43.1019 25.0327 42.9968 27.1044 42.2967L33.0688 40.2815C35.2949 39.5322 37.2425 38.1276 38.6562 36.252L44.603 28.3811C44.8912 27.9985 45.0303 27.524 44.9944 27.0463C44.9585 26.5686 44.7501 26.1203 44.4079 25.785ZM4.39464 42.5832C4.39418 42.8744 4.27828 43.1535 4.07234 43.3595C3.8664 43.5654 3.58722 43.6813 3.29598 43.6817H1.31839V29.1809H3.29598C3.58722 29.1813 3.8664 29.2972 4.07234 29.5031C4.27828 29.709 4.39418 29.9882 4.39464 30.2794V42.5832ZM43.5527 27.5866L37.6058 35.4567C36.3519 37.121 34.6239 38.3672 32.6487 39.0318L26.6843 41.0452C24.846 41.6665 22.8703 41.7597 20.9818 41.3141L14.2527 39.7322C12.8555 39.403 11.394 39.4718 10.0339 39.9308L5.71304 41.3844V30.7953L11.514 27.8687C11.923 27.663 12.3744 27.5552 12.8324 27.5541H23.3584C23.6894 27.5798 23.9985 27.7294 24.224 27.9731C24.4495 28.2167 24.5748 28.5365 24.5748 28.8684C24.5748 29.2004 24.4495 29.5201 24.224 29.7638C23.9985 30.0074 23.6894 30.157 23.3584 30.1827H14.4144C14.2396 30.1827 14.0719 30.2522 13.9483 30.3758C13.8247 30.4994 13.7552 30.6671 13.7552 30.8419C13.7552 31.0167 13.8247 31.1843 13.9483 31.3079C14.0719 31.4316 14.2396 31.501 14.4144 31.501H16.3577V32.1505C16.3552 32.7781 16.5979 33.3819 17.0341 33.8332C17.4704 34.2845 18.0656 34.5476 18.6931 34.5664L31.1369 34.9865C32.1939 35.0227 33.2263 34.6632 34.0321 33.9785L42.6122 26.699C42.7342 26.5949 42.8904 26.5396 43.0507 26.5436C43.211 26.5476 43.3642 26.6108 43.4808 26.7208C43.5975 26.8309 43.6693 26.9802 43.6826 27.14C43.6958 27.2998 43.6496 27.4589 43.5527 27.5866Z" fill="black"/>
</svg>
