<svg width="45" height="45" viewBox="0 0 45 45" fill="none" xmlns="http://www.w3.org/2000/svg">
<path d="M44.9995 22.4999C44.9995 34.9042 34.9038 45 22.4996 45C19.3164 45 16.2435 44.3435 13.3591 43.0601C12.9462 42.8758 12.7619 42.3993 12.9462 41.9863C13.1304 41.5733 13.607 41.389 14.0199 41.5733C16.6926 42.7657 19.5452 43.3735 22.5 43.3735C34.0102 43.3735 43.3734 34.0102 43.3734 22.4999C43.3734 16.4428 40.8193 10.8367 36.3253 6.87456V11.6567C36.3253 12.1056 35.961 12.4699 35.512 12.4699C35.063 12.4699 34.6988 12.1056 34.6988 11.6567V5.15062C34.6988 4.70164 35.063 4.33736 35.512 4.33736H42.018C42.467 4.33736 42.8313 4.70164 42.8313 5.15062C42.8313 5.5996 42.467 5.96388 42.018 5.96388H37.7463C42.376 10.2144 44.9995 16.1229 44.9995 22.4999ZM9.48752 32.5301C9.03854 32.5301 8.67427 32.8944 8.67427 33.3433V38.1254C4.18018 34.1629 1.62608 28.5572 1.62608 22.5001C1.62608 10.9898 10.9893 1.62652 22.4996 1.62652C25.4539 1.62652 28.311 2.23435 30.9796 3.42669C31.3926 3.61094 31.8691 3.42669 32.0534 3.01371C32.2376 2.60073 32.0534 2.12422 31.6404 1.93994C28.7622 0.656514 25.6874 0 22.5 0C10.0957 0 0 10.0958 0 22.5001C0 28.8771 2.62398 34.7857 7.25367 39.0363H2.98198C2.533 39.0363 2.16873 39.4006 2.16873 39.8495C2.16873 40.2985 2.533 40.6628 2.98198 40.6628H9.48799C9.93697 40.6628 10.3012 40.2985 10.3012 39.8495V33.3435C10.3012 32.8945 9.9365 32.5301 9.48752 32.5301ZM13.3039 21.2144C11.2877 17.7327 12.946 9.81801 13.0159 9.48133C13.0646 9.2526 13.2065 9.06411 13.4055 8.94551C13.6067 8.83114 13.8439 8.80361 14.0621 8.87562C14.295 8.95186 19.526 10.6546 22.4977 13.1579C25.469 10.6525 30.7001 8.94973 30.9332 8.87562C31.1493 8.80573 31.3886 8.83326 31.5898 8.94551C31.791 9.05988 31.9307 9.25472 31.9794 9.48133C32.0493 9.81806 33.7097 17.7326 31.6914 21.2144C29.5884 24.8635 26.1998 25.5095 23.4933 25.5095C23.4276 25.5095 23.3747 25.5031 23.309 25.5031V31.4778C28.1674 31.7976 30.6218 34.877 30.7319 35.0125C31.0093 35.3641 30.9436 35.8808 30.5857 36.1519C30.4396 36.2663 30.2596 36.3192 30.0859 36.3192C29.8424 36.3192 29.6031 36.2112 29.44 36.0058C29.3532 35.8914 27.0765 33.0725 22.4997 33.0725C17.9018 33.0725 15.5702 35.9846 15.5491 36.0121C15.2717 36.3637 14.7634 36.4294 14.4054 36.154C14.0539 35.8766 13.9882 35.3683 14.2636 35.0104C14.3716 34.8748 16.8388 31.7955 21.6804 31.4757V25.5032C21.6148 25.5032 21.5618 25.5095 21.4962 25.5095C18.798 25.5095 15.4136 24.8636 13.3045 21.2145L13.3039 21.2144ZM30.5622 10.7289C28.8425 11.3642 25.0115 12.9145 23.0694 14.8333C22.9064 14.9963 22.7602 15.153 22.6353 15.3161C22.5103 15.4728 22.3959 15.6296 22.3091 15.7884C22.2159 15.9515 22.1312 16.1082 22.0486 16.2713C22.0211 16.3306 21.9936 16.3856 21.9681 16.4449C21.9194 16.5487 21.8707 16.6504 21.8262 16.7541C21.7987 16.824 21.7775 16.8897 21.75 16.9596C21.7182 17.0528 21.6801 17.1438 21.6462 17.237C21.6251 17.3069 21.6039 17.3831 21.5806 17.453C21.553 17.5399 21.5255 17.6309 21.5043 17.7178C21.4874 17.794 21.4726 17.8702 21.4556 17.9401C21.4387 18.027 21.4175 18.1138 21.4069 18.2006C21.3963 18.2769 21.3857 18.3531 21.3794 18.4294C21.3688 18.5162 21.3582 18.603 21.3518 18.6899C21.3455 18.7661 21.3455 18.8466 21.3413 18.9228C21.3349 19.0097 21.3349 19.0965 21.3349 19.1833C21.3349 19.2638 21.3413 19.34 21.3455 19.4226C21.3518 19.5095 21.3561 19.5963 21.3624 19.6874C21.3688 19.7679 21.3794 19.8505 21.39 19.9267C21.4006 20.0135 21.4111 20.1046 21.4281 20.1914C21.445 20.2719 21.4599 20.3545 21.4768 20.435C21.4937 20.5282 21.5149 20.6129 21.5361 20.7061C21.5573 20.7865 21.5785 20.8734 21.606 20.956C21.6335 21.0492 21.6611 21.1402 21.6865 21.2334C21.714 21.3202 21.7458 21.4071 21.7733 21.4876C21.8051 21.5807 21.839 21.6718 21.8771 21.7692C21.9089 21.8561 21.947 21.9429 21.9851 22.034C22.0232 22.1272 22.0656 22.2246 22.11 22.322C22.1524 22.4088 22.1905 22.4999 22.2392 22.5931C22.2668 22.6524 22.2985 22.7117 22.3324 22.7773L22.4997 23.0421L26.6803 15.8095C26.9091 15.4198 27.4004 15.2885 27.7922 15.5109C28.1819 15.7396 28.3132 16.2309 28.0908 16.6228L23.8996 23.8656C27.0001 23.7788 28.9528 22.7008 30.2869 20.3966C31.5322 18.2491 31.0112 13.321 30.5622 10.7289ZM14.7146 20.4012C16.0425 22.7054 17.9888 23.7834 21.0786 23.8766C21.0574 23.8342 21.0362 23.7961 21.0129 23.7516C20.9812 23.686 20.9473 23.6225 20.9155 23.561C20.9049 23.5335 20.888 23.5123 20.8774 23.4848L16.9149 16.6312C16.6925 16.2415 16.8217 15.7481 17.2135 15.5193C17.6032 15.2906 18.0967 15.4262 18.3254 15.818L19.7846 18.3446C19.7952 18.2408 19.8058 18.1391 19.8164 18.0354C19.8269 17.9591 19.8439 17.8787 19.8545 17.8024C19.882 17.6563 19.9095 17.5101 19.9413 17.3577C19.9625 17.2708 19.9837 17.184 20.007 17.0972C20.0451 16.951 20.0874 16.8049 20.1361 16.6588C20.1637 16.5719 20.1954 16.4851 20.2293 16.394C20.2886 16.2373 20.3543 16.0806 20.4242 15.9175C20.4559 15.8413 20.4898 15.765 20.528 15.6846C20.6423 15.4452 20.7609 15.2123 20.8965 14.9687C20.9621 14.8607 21.0256 14.7527 21.1019 14.6426C21.1337 14.5939 21.1781 14.5388 21.2163 14.4901C21.2586 14.4308 21.2967 14.3757 21.3454 14.3164C19.2954 12.6306 15.9936 11.3027 14.4328 10.7267C13.9881 13.3211 13.4672 18.2493 14.7146 20.4012Z" fill="black"/>
</svg>
