<svg width="39" height="46" viewBox="0 0 39 46" fill="none" xmlns="http://www.w3.org/2000/svg">
<path d="M38.0841 22.5922C37.8787 21.8171 37.6076 21.061 37.2709 20.3324C37.3556 14.9552 35.3182 9.76016 31.5992 5.87606C27.7702 2.05968 22.5689 -0.0558078 17.164 0.0011199C16.8612 0.0011199 16.6113 0.240439 16.6006 0.543289C16.6091 2.52345 16.8908 4.49093 17.4351 6.39492C12.9199 6.49022 8.61834 8.33696 5.43961 11.5455C2.11883 14.8642 0.253006 19.3647 0.253006 24.0599C0.253006 28.7551 2.11883 33.2577 5.43961 36.5764C8.45119 39.607 12.471 41.4241 16.7362 41.6804H17.9561C22.626 41.6762 27.1052 39.8167 30.4027 36.5086C32.9314 33.9989 34.6257 30.7735 35.2589 27.2684V27.1329C35.6316 25.0934 35.6316 23.0052 35.2589 20.9657H36.2077C36.483 21.5566 36.7096 22.1687 36.8854 22.7955C37.3534 24.2378 37.561 25.752 37.4953 27.2684C37.3873 29.2253 36.8812 31.1398 36.0044 32.8934C35.045 34.8693 33.7637 36.6717 32.2092 38.224C28.2785 42.1335 22.9099 44.2491 17.3673 44.0756C11.8654 43.9062 6.6828 41.4495 3.06762 37.2985C2.9702 37.1905 2.83042 37.1291 2.68429 37.1291C2.53816 37.1291 2.39838 37.1905 2.30096 37.2985C2.08494 37.5188 2.08494 37.8704 2.30096 38.0885C6.09614 42.4364 11.5325 45.0055 17.2995 45.1833H17.9772C23.5957 45.1854 28.986 42.968 32.9779 39.0161C34.6129 37.3621 35.9726 35.4539 36.9998 33.3678C37.9316 31.485 38.478 29.4329 38.6029 27.3362C38.7088 25.7372 38.5331 24.1319 38.0841 22.5922ZM6.2084 12.3143C9.28776 9.21804 13.4745 7.47714 17.8417 7.47925C18.5575 9.52084 19.5953 11.4354 20.9147 13.1487L20.0104 13.532V13.5342C18.494 14.0594 17.0454 14.7646 15.6964 15.6351C14.2414 16.8211 13.2566 18.4857 12.9177 20.3325C12.6784 21.1733 12.3608 21.9907 11.9689 22.7722C11.4035 23.8333 10.4547 24.8964 9.70919 24.8054C8.10599 24.7291 6.63617 23.8883 5.75726 22.5477C5.1219 20.9085 3.87448 19.5785 2.27763 18.8415C3.06757 16.3933 4.41458 14.1589 6.2084 12.3143ZM29.725 35.8076C26.6689 38.8721 22.5326 40.6151 18.2039 40.6638C21.1328 38.3002 22.6916 34.6321 22.3612 30.8836C22.3612 30.2737 22.2257 29.687 22.1346 29.0982C21.7153 27.3086 21.7153 25.4449 22.1346 23.6532C22.4798 22.6049 23.2147 21.7302 24.1911 21.2135C24.6782 20.989 25.2394 20.989 25.7265 21.2135C26.4487 21.5079 26.5397 22.0034 26.6308 22.9311C26.6647 23.5728 26.8257 24.2039 27.1052 24.7842C27.6643 25.6483 28.5263 26.2773 29.5217 26.5462C30.2608 26.7686 31.0147 26.9253 31.7814 27.0206C32.5502 27.1181 33.3084 27.3002 34.0391 27.5628C33.4334 30.6718 31.9339 33.5375 29.725 35.8076ZM34.4012 26.3641C33.6197 26.1121 32.8191 25.9236 32.0059 25.8007C31.3027 25.7308 30.606 25.5932 29.9283 25.3941C29.1828 25.2098 28.5369 24.7503 28.1218 24.1064C27.91 23.668 27.7956 23.1915 27.7829 22.7044C27.8528 21.5883 27.2217 20.5442 26.2009 20.0847C25.4257 19.7374 24.5363 19.7374 23.7611 20.0847C22.5095 20.7327 21.5607 21.8425 21.118 23.1788C20.6669 25.1336 20.6669 27.1668 21.118 29.1215C21.118 29.687 21.2769 30.2737 21.3447 30.8391V30.837C21.6263 34.7254 19.8198 38.4675 16.6007 40.6638C12.6763 40.3737 8.98917 38.6815 6.20839 35.8986C2.08281 31.7562 0.443508 25.7476 1.89435 20.0847C3.18623 20.7285 4.17948 21.8446 4.67297 23.2021C5.74462 24.8477 7.54478 25.8749 9.50591 25.9574H9.73252C11.4035 25.9574 12.6022 23.9688 12.9411 23.3377C13.3689 22.5011 13.7099 21.6222 13.9576 20.7179C14.2478 19.1147 15.0864 17.6598 16.3296 16.6051C17.6131 15.7918 18.9833 15.1247 20.4171 14.6185L21.6835 14.053C24.9027 17.8038 29.4051 20.2202 34.3101 20.8302C34.6659 22.6557 34.6977 24.5279 34.4012 26.3641ZM25.3643 10.98H25.4998L26.1776 11.3867C26.7875 11.7488 27.3974 12.1088 27.9629 12.4943C29.5703 13.4389 31.0846 14.5359 32.4803 15.7706C33.8251 16.9418 34.9624 18.3333 35.8476 19.8814C31.019 19.587 26.4762 17.4839 23.1278 13.994C19.7795 10.5016 17.8671 5.87823 17.7739 1.041C22.4141 1.12148 26.8596 2.9259 30.2416 6.10475C33.6238 9.28153 35.7034 13.6062 36.0721 18.2314C35.244 17.02 34.274 15.9145 33.1812 14.934C31.7771 13.6823 30.265 12.5556 28.6639 11.5687C28.0984 11.1854 27.4885 10.8232 26.8574 10.4399L26.1797 10.0333H25.8853V10.0312C25.7625 9.98035 25.6227 9.97824 25.4998 10.0291C25.377 10.082 25.2796 10.1794 25.2288 10.3023C25.125 10.531 25.1695 10.8 25.3431 10.98L25.3643 10.98Z" fill="black"/>
</svg>
