<svg width="46" height="45" viewBox="0 0 46 45" fill="none" xmlns="http://www.w3.org/2000/svg">
<path d="M42.4293 20.7049C42.0571 20.2376 41.9661 19.6048 42.1936 19.0505L43.2958 16.3311C43.697 15.3467 43.6743 14.2383 43.2317 13.2705C42.7892 12.3026 41.9661 11.5602 40.9569 11.219L38.2002 10.276C37.6315 10.0878 37.2076 9.60392 37.098 9.01452L36.5458 6.12965C36.3514 5.08322 35.7331 4.16506 34.8376 3.59012C33.9442 3.01523 32.8523 2.83528 31.8204 3.09172L28.9686 3.7969C28.3896 3.93959 27.7795 3.76174 27.3701 3.32746L25.3558 1.20981C24.6279 0.438459 23.6125 0 22.5495 0C21.4866 0 20.4711 0.438417 19.7432 1.20981L17.7248 3.35022C17.3153 3.78244 16.7032 3.96233 16.1242 3.81966L13.2745 3.11242C12.2425 2.85599 11.1486 3.03798 10.2552 3.61288C9.35974 4.18777 8.74345 5.10598 8.54699 6.15242L7.99481 9.03729L7.99688 9.03522C7.8852 9.62668 7.46334 10.1085 6.89258 10.2988L4.13593 11.2418C3.12883 11.583 2.30782 12.3275 1.86523 13.2932C1.42475 14.261 1.402 15.3695 1.80319 16.3539L2.90543 19.0733C3.13084 19.6151 3.05225 20.2376 2.69656 20.7049L0.837422 23.0273C0.177722 23.8586 -0.111814 24.9257 0.0391747 25.9784C0.190142 27.031 0.76918 27.974 1.63773 28.5861L4.04285 30.2798V30.2778C4.5309 30.621 4.79562 31.2022 4.7377 31.7957L4.43991 34.7178C4.33238 35.7766 4.66532 36.8313 5.36225 37.6357C6.05917 38.4381 7.05594 38.92 8.11683 38.9634L11.0514 39.0854C11.6531 39.1144 12.1908 39.4659 12.4576 40.0057L13.7873 42.6258C14.2692 43.5751 15.1212 44.2823 16.1407 44.5822C17.1623 44.882 18.2625 44.7455 19.1807 44.2079L21.7119 42.7251C22.2227 42.4294 22.8534 42.4294 23.3663 42.7251L25.8976 44.2079C26.4869 44.5636 27.1611 44.7538 27.8498 44.76C28.222 44.7621 28.5942 44.7104 28.952 44.6049C29.9715 44.3071 30.8236 43.5999 31.3074 42.6527L32.6413 40.0057C32.9122 39.4721 33.4499 39.1267 34.0475 39.102L36.9821 38.98C38.0429 38.9365 39.0397 38.4547 39.7366 37.6523C40.4336 36.8479 40.7665 35.7932 40.659 34.7343L40.3612 31.8123C40.3033 31.2187 40.568 30.6376 41.056 30.2943L43.4612 28.6006V28.6027C44.3297 27.9906 44.9088 27.0476 45.0597 25.9949C45.2107 24.9423 44.9212 23.8752 44.2615 23.0439L42.4293 20.7049ZM42.876 25.6682C42.8078 26.1128 42.5617 26.5119 42.1936 26.7704L39.7884 28.4579C38.6448 29.2623 38.0244 30.621 38.1671 32.0107L38.4649 34.9287V34.9266C38.5146 35.3837 38.3719 35.8386 38.0741 36.184C37.7742 36.5314 37.3461 36.7403 36.887 36.7589L33.9525 36.885H33.9546C32.5504 36.9326 31.2827 37.7391 30.6457 38.9923L29.3429 41.6063C29.1361 42.0116 28.7721 42.3156 28.3337 42.4438C27.8974 42.5721 27.4259 42.5142 27.033 42.2846L24.5018 40.8018V40.7998C23.2941 40.1028 21.805 40.1028 20.5973 40.7998L18.0661 42.2825V42.2846C17.6732 42.5142 17.2017 42.5721 16.7654 42.4438C16.3269 42.3156 15.963 42.0116 15.7562 41.6063L14.4265 38.9923C13.7895 37.7391 12.5218 36.9326 11.1176 36.885L8.21207 36.7589C7.75504 36.7403 7.32901 36.5335 7.02915 36.1881C6.73136 35.8448 6.58866 35.3919 6.63416 34.939L6.93196 32.0211C7.07465 30.6314 6.45425 29.2727 5.31063 28.4703L2.90552 26.7704C2.53328 26.5078 2.2851 26.1045 2.22099 25.6537C2.15688 25.2028 2.28096 24.7458 2.56428 24.3881L4.39445 22.0884C5.26301 20.9965 5.47398 19.5199 4.94663 18.2295L3.8444 15.51C3.66862 15.0902 3.67688 14.6146 3.87128 14.203C4.05947 13.7873 4.41101 13.4689 4.84116 13.32L7.59781 12.377H7.59988C8.91928 11.9303 9.89535 10.8032 10.1518 9.43212L10.704 6.54312C10.7929 6.09643 11.0617 5.70765 11.4464 5.46566C11.831 5.2237 12.2984 5.15132 12.7389 5.26299L15.5907 5.97442C16.9431 6.30943 18.3742 5.88756 19.3296 4.87218L21.348 2.73802C21.6644 2.41541 22.0967 2.23136 22.5495 2.23136C23.0024 2.23136 23.4346 2.41541 23.751 2.73802L25.7632 4.87218H25.7653C26.7207 5.88966 28.1538 6.31155 29.5084 5.97442L32.3602 5.26299C32.8027 5.15339 33.2701 5.23197 33.6527 5.47807C34.0352 5.72416 34.3 6.11707 34.3847 6.56585L34.9369 9.45485H34.9348C35.1913 10.8259 36.1674 11.9509 37.4888 12.3997L40.2455 13.3427C40.6777 13.4895 41.0293 13.8101 41.2174 14.2257C41.4015 14.6414 41.4015 15.115 41.2174 15.5328L40.1152 18.2522L40.1131 18.2501C39.5858 19.5426 39.7967 21.0192 40.6653 22.1111L42.4955 24.4108C42.7912 24.7603 42.9298 25.2153 42.876 25.6682ZM22.5493 7.92229C18.7172 7.92022 15.0422 9.44022 12.3332 12.1493C9.6241 14.8584 8.10204 18.5314 8.09998 22.3633C8.09998 26.1932 9.62204 29.8682 12.3311 32.5772C15.0402 35.2863 18.7153 36.8084 22.5451 36.8084C26.3771 36.8063 30.05 35.2842 32.759 32.5751C35.4681 29.866 36.9881 26.191 36.9861 22.3591C36.984 18.5312 35.4619 14.8605 32.7549 12.1536C30.0479 9.44657 26.3769 7.92436 22.5493 7.92229ZM22.5493 34.5957C19.3025 34.5978 16.19 33.3094 13.8944 31.016C11.5969 28.7205 10.3065 25.608 10.3065 22.3633C10.3065 19.1165 11.5948 16.004 13.8882 13.7084C16.1837 11.413 19.2962 10.1225 22.541 10.1225C25.7877 10.1205 28.9002 11.4109 31.1958 13.7043C33.4913 15.9998 34.7817 19.1123 34.7817 22.3591C34.7776 25.6018 33.4892 28.7121 31.1958 31.0076C28.9024 33.301 25.7919 34.5916 22.5493 34.5957ZM28.224 18.6635L22.2411 27.3221C22.0571 27.5868 21.7676 27.7584 21.447 27.7915H21.3354C21.05 27.7915 20.7749 27.6798 20.5702 27.4813L17.0339 24.0525C16.5955 23.6286 16.5831 22.9296 17.007 22.4912C17.4309 22.0528 18.1299 22.0403 18.5683 22.4643L21.1823 24.9893L26.4103 17.3954C26.7639 16.9198 27.4319 16.8122 27.9199 17.1473C28.408 17.4844 28.5424 18.1461 28.2239 18.6466L28.224 18.6635Z" fill="black"/>
</svg>
