<svg width="40" height="45" viewBox="0 0 40 45" fill="none" xmlns="http://www.w3.org/2000/svg">
<path d="M15.5428 9.81973C15.5428 10.1528 15.813 10.4211 16.1442 10.4211C16.4754 10.4211 16.7455 10.1509 16.7455 9.81973C16.7455 7.81027 18.3794 6.17644 20.3888 6.17644C22.3983 6.17644 24.0321 7.81027 24.0321 9.81973C24.0321 10.1528 24.3023 10.4211 24.6335 10.4211C24.9647 10.4211 25.2348 10.1509 25.2348 9.81973C25.2348 7.8195 24.0173 6.0987 22.2835 5.36042C22.7276 4.89229 23.0014 4.25948 23.0014 3.56189C23.0014 2.12047 21.8283 0.947388 20.3869 0.947388C18.9455 0.947388 17.7724 2.12051 17.7724 3.56189C17.7724 4.25764 18.0463 4.89043 18.4903 5.36042C16.7585 6.10055 15.5391 7.82135 15.5391 9.81973H15.5428ZM20.3886 2.15031C21.1676 2.15031 21.8005 2.7831 21.8005 3.56212C21.8005 4.3411 21.1677 4.97394 20.3886 4.97394C19.6096 4.97394 18.9768 4.34115 18.9768 3.56212C18.9768 2.78315 19.6096 2.15031 20.3886 2.15031ZM11.2314 31.9886C10.3932 32.4734 9.41063 32.5992 8.467 32.3476C7.52333 32.0941 6.73696 31.4927 6.254 30.6545C5.24926 28.9152 5.84692 26.6819 7.58808 25.6771C7.87673 25.5105 7.9748 25.1423 7.80827 24.8555C7.64174 24.5669 7.27352 24.4688 6.98671 24.6353C5.25482 25.6345 4.37406 27.5496 4.59977 29.4205C3.9466 29.2632 3.26753 29.3613 2.68281 29.698C2.07778 30.0477 1.64478 30.6121 1.4653 31.2856C1.28397 31.961 1.37649 32.6642 1.7262 33.2692C2.07591 33.8742 2.64027 34.3072 3.3138 34.4867C3.53954 34.5478 3.76713 34.5774 3.99472 34.5774C4.44805 34.5774 4.89396 34.4589 5.29735 34.2258C5.90054 33.8779 6.31132 33.3247 6.49449 32.703C6.98485 33.0694 7.5455 33.3451 8.15608 33.5079C8.57611 33.6208 9.0017 33.6763 9.42541 33.6763C10.2636 33.6763 11.0907 33.4579 11.8327 33.0286C12.1213 32.8621 12.2194 32.4939 12.0529 32.2071C11.8863 31.9184 11.5181 31.8204 11.2313 31.9869L11.2314 31.9886ZM4.69595 33.1839C4.3703 33.3727 3.98912 33.4226 3.62462 33.3245C3.26011 33.2265 2.95663 32.9933 2.76792 32.6677C2.57918 32.342 2.52922 31.9609 2.62729 31.5964C2.72536 31.2318 2.9585 30.9284 3.28415 30.7397C3.50619 30.612 3.74858 30.5509 3.98728 30.5509C4.47575 30.5509 4.95133 30.8044 5.21218 31.2559C5.60075 31.9294 5.36945 32.7935 4.69595 33.1839ZM38.0945 29.6979C37.4913 29.35 36.8066 29.2705 36.1775 29.4222C36.4033 27.5515 35.5225 25.6364 33.7906 24.637C33.5019 24.4705 33.1356 24.5686 32.969 24.8572C32.8025 25.1459 32.9024 25.5141 33.1892 25.6788C34.9285 26.6835 35.528 28.915 34.5233 30.6563C34.0385 31.4944 33.2521 32.0958 32.3103 32.3474C31.3666 32.5991 30.3859 32.4733 29.5459 31.9885C29.2573 31.822 28.8891 31.92 28.7244 32.2087C28.5578 32.4973 28.6577 32.8655 28.9445 33.0302C29.6865 33.4595 30.5136 33.6778 31.3518 33.6778C31.7755 33.6778 32.2011 33.6223 32.6211 33.5095C33.2318 33.3448 33.7924 33.0709 34.2827 32.7046C34.4659 33.3244 34.8785 33.8777 35.4799 34.2274C35.8906 34.4642 36.3403 34.5771 36.7825 34.5771C37.6873 34.5771 38.5681 34.109 39.051 33.2708C39.7726 32.0218 39.3434 30.4194 38.0944 29.6996L38.0945 29.6979ZM38.0094 32.6676C37.6208 33.3412 36.7549 33.5725 36.0813 33.1839C35.4078 32.7953 35.1765 31.9312 35.5651 31.2558C35.826 30.8044 36.3015 30.5509 36.79 30.5509C37.0287 30.5509 37.2711 30.6119 37.4931 30.7396C38.1667 31.1282 38.398 31.9941 38.0094 32.6676ZM24.0783 34.2108C23.7453 34.1831 23.4566 34.4292 23.427 34.7585C23.2179 37.1972 22.7609 39.3898 22.1373 40.9292C21.5952 42.2688 20.942 43.0681 20.3887 43.0681C19.2119 43.0681 17.6225 39.6265 17.2857 33.8829C18.2756 34.1531 19.3156 34.2974 20.3887 34.2974C26.8962 34.2974 32.192 29.0016 32.192 22.4941C32.192 21.902 32.1476 21.321 32.0625 20.7511C34.2347 19.3578 36.111 17.8387 37.4506 16.3843C39.2825 14.3934 39.9042 12.741 39.2492 11.6049C37.9817 9.41037 32.9264 10.7907 28.9797 12.641C28.6781 12.7817 28.5486 13.1406 28.691 13.4422C28.8317 13.7438 29.1906 13.8734 29.4922 13.7309C31.7089 12.691 33.835 11.9916 35.4801 11.7622C36.9104 11.5605 37.9299 11.727 38.2074 12.2062C38.4776 12.6744 38.1889 13.8031 36.5662 15.5683C35.3746 16.8635 33.7223 18.218 31.8033 19.4836C30.4692 14.4284 25.8581 10.6892 20.3885 10.6892C17.6167 10.6892 15.0652 11.6495 13.0483 13.2574C10.752 12.0714 8.49831 11.2036 6.56639 10.7724C3.92597 10.1822 2.18481 10.469 1.52781 11.6051C0.260322 13.7996 3.98504 17.4873 7.5597 19.9798C7.66517 20.052 7.78544 20.0871 7.90386 20.0871C8.09444 20.0871 8.28133 19.9965 8.39791 19.8299C8.5885 19.5579 8.52189 19.1823 8.24804 18.9918C6.24042 17.5929 4.57144 16.0997 3.54819 14.7897C2.65818 13.6517 2.29368 12.6858 2.56937 12.2066C3.15778 11.1871 6.93617 11.5312 12.0819 14.1143C9.92256 16.2551 8.58293 19.2192 8.58293 22.4928C8.58293 27.4741 11.6841 31.7443 16.0581 33.4747C16.1803 36.0522 16.5559 38.4375 17.1461 40.3246C17.9547 42.9058 19.0742 44.2714 20.3861 44.2714C22.9192 44.2714 24.2514 39.2015 24.6233 34.8607C24.6511 34.5295 24.405 34.239 24.0756 34.2094L24.0783 34.2108ZM20.3906 33.0951C20.0353 33.0951 19.6838 33.0766 19.3359 33.0432C19.4265 32.984 19.5302 32.9359 19.6486 32.9008C20.6774 32.5918 21.288 32.1976 21.5692 31.6574C21.8912 31.043 21.6951 30.4454 21.5378 29.9643C21.4138 29.5868 21.3453 29.3463 21.4323 29.1872C21.5137 29.0392 21.8135 28.7431 22.9237 28.4471C23.6675 28.2472 23.9173 28.5451 24.2966 29.0854C24.5445 29.437 24.8517 29.8755 25.4142 29.8478C26.0359 29.8163 26.5743 29.2205 27.5513 27.4868C28.0916 26.5265 28.6634 25.9658 29.2462 25.8215C29.5941 25.7364 29.9715 25.7937 30.3934 25.9972C28.9446 30.1272 25.0072 33.0949 20.3887 33.0949L20.3906 33.0951ZM20.3906 11.8958C24.6667 11.8958 28.3598 14.4418 30.0343 18.0982C29.8881 18.0501 29.7531 17.965 29.6217 17.841C28.8409 17.1046 28.1951 16.7734 27.5845 16.7993C26.8906 16.8289 26.4724 17.297 26.1357 17.6727C25.8711 17.9687 25.6971 18.1482 25.5158 18.1537C25.3474 18.1611 24.9404 18.0446 24.1281 17.2323C23.5841 16.6883 23.7154 16.3238 23.9948 15.7243C24.1762 15.3338 24.4019 14.849 24.0966 14.3754C23.7598 13.8517 22.9753 13.6833 20.9825 13.7055C19.8871 13.7166 19.1248 13.5075 18.7066 13.0838C18.4716 12.8451 18.3328 12.525 18.2829 12.1068C18.9638 11.9699 19.669 11.8958 20.3906 11.8958ZM12.9338 28.56C12.8506 28.869 12.6544 29.1429 12.3436 29.3871C10.7523 27.5331 9.79015 25.1239 9.79015 22.4945C9.79015 20.289 10.4674 18.2406 11.6238 16.5422C11.6183 16.6051 11.6109 16.668 11.5942 16.7346C11.3463 17.7782 11.3833 18.5054 11.7108 19.0198C12.0827 19.6045 12.6988 19.734 13.1929 19.8377C13.5815 19.9191 13.8238 19.9801 13.9182 20.1356C14.007 20.2799 14.1106 20.687 13.8146 21.7971C13.6147 22.5391 13.2336 22.6094 12.5749 22.6668C12.1456 22.7038 11.6127 22.7519 11.3555 23.2533C11.0706 23.8066 11.3185 24.5727 12.3325 26.286C12.8857 27.2223 13.0893 27.9883 12.9338 28.5619L12.9338 28.56ZM17.0767 26.7467C16.6068 26.7467 16.2256 26.3637 16.2256 25.8955C16.2256 25.4255 16.6086 25.0444 17.0767 25.0444C17.5467 25.0444 17.9279 25.4274 17.9279 25.8955C17.9279 26.3655 17.5449 26.7467 17.0767 26.7467ZM17.2229 31.637C17.2229 30.364 17.2858 29.1169 17.4098 27.9215C18.3849 27.7624 19.1324 26.9131 19.1324 25.8936C19.1324 24.7594 18.211 23.8379 17.0767 23.8379C15.9444 23.8379 15.0211 24.7594 15.0211 25.8936C15.0211 26.7188 15.5114 27.4331 16.2163 27.7587C16.085 29.0058 16.0184 30.3085 16.0184 31.6352C16.0184 31.8072 16.0202 31.9793 16.0221 32.1495C14.9711 31.6722 14.0126 31.0301 13.1781 30.253C13.6425 29.8625 13.9515 29.3981 14.094 28.8707C14.3401 27.9585 14.1033 26.9113 13.3668 25.6678C12.7359 24.602 12.5342 24.1061 12.4731 23.8823C12.5397 23.8749 12.6156 23.8675 12.6804 23.8619C13.3335 23.8046 14.5492 23.6954 14.9766 22.1041C15.3004 20.8922 15.2912 20.0651 14.9433 19.5007C14.5696 18.8938 13.9164 18.755 13.439 18.6551C13.0578 18.5755 12.8191 18.5163 12.7266 18.3701C12.6489 18.248 12.5527 17.9094 12.7655 17.0065C12.9043 16.418 12.8284 15.8592 12.549 15.3652C12.7599 15.1339 12.9801 14.9119 13.2096 14.701C13.489 14.8527 13.7702 15.0118 14.0552 15.1765C15.158 15.8131 16.2071 16.4921 17.1786 17.1952C16.8288 18.1204 17.1897 19.1917 18.0741 19.7006C18.3979 19.8875 18.7495 19.9744 19.0974 19.9744C19.8079 19.9744 20.4999 19.6062 20.8811 18.9475C21.1549 18.4719 21.2289 17.9187 21.0864 17.3876C20.944 16.8584 20.6035 16.4144 20.128 16.1387C19.4119 15.7261 18.5497 15.7927 17.915 16.2404C16.901 15.504 15.8056 14.7953 14.6566 14.1311C14.5085 14.046 14.3605 13.9627 14.2125 13.8794C15.0896 13.2485 16.0647 12.7489 17.1119 12.4084C17.2137 13.019 17.4598 13.526 17.8484 13.9201C18.5145 14.5955 19.5414 14.9175 20.9939 14.9008C22.2318 14.8878 22.7629 14.9619 22.9867 15.0211C22.9608 15.084 22.9294 15.1524 22.9016 15.2098C22.6259 15.8038 22.1097 16.9121 23.2754 18.076C24.1432 18.9438 24.8518 19.349 25.5032 19.349H25.5457C26.2581 19.3305 26.704 18.8328 27.0297 18.4682C27.2906 18.1777 27.4608 18.0019 27.6329 17.9927C27.7772 17.9853 28.1176 18.0704 28.793 18.7088C29.2815 19.1695 29.868 19.3823 30.5083 19.336C30.5934 19.6062 30.6655 19.88 30.7285 20.1594C30.4528 20.3278 30.1733 20.4962 29.8884 20.659C28.7856 21.2955 27.6736 21.8654 26.5782 22.3539C25.9528 21.5879 24.8444 21.3658 23.96 21.8765C22.9793 22.4427 22.6407 23.7028 23.2069 24.6835C23.5881 25.3422 24.2801 25.7104 24.9906 25.7104C25.3385 25.7104 25.6919 25.6216 26.0139 25.4366C26.7299 25.024 27.1019 24.2431 27.0315 23.4697C28.1769 22.959 29.3371 22.3669 30.488 21.7026C30.6378 21.6157 30.7859 21.5287 30.932 21.4417C30.9653 21.7859 30.9839 22.1356 30.9839 22.489C30.9839 23.2902 30.8932 24.0729 30.7248 24.8241C30.1123 24.5688 29.5184 24.5077 28.954 24.6465C28.0214 24.8759 27.2184 25.6086 26.4968 26.8891C25.8899 27.9678 25.5605 28.3916 25.3977 28.5562C25.357 28.5026 25.3144 28.4397 25.2774 28.3878C24.9 27.8513 24.1987 26.8521 22.6074 27.2776C21.3954 27.6014 20.6849 28.0251 20.3704 28.608C20.0299 29.2353 20.239 29.87 20.3907 30.3325C20.5128 30.7026 20.5794 30.9394 20.4999 31.093C20.4333 31.2207 20.189 31.4742 19.3009 31.7406C18.6977 31.922 18.2406 32.2865 17.9557 32.8064C17.7115 32.7491 17.4691 32.6824 17.2323 32.6084C17.2249 32.2883 17.2212 31.9627 17.2212 31.6315L17.2229 31.637ZM18.3646 17.4985C18.5219 17.2265 18.8087 17.0729 19.1029 17.0729C19.2472 17.0729 19.3934 17.1099 19.5266 17.1876C19.7227 17.3005 19.8652 17.4855 19.9244 17.7057C19.9836 17.9259 19.9522 18.1554 19.8393 18.3515C19.7264 18.5477 19.5414 18.6901 19.3212 18.7493C19.101 18.8085 18.8715 18.7789 18.6754 18.6642C18.4793 18.5514 18.3368 18.3663 18.2776 18.1461C18.2184 17.9259 18.2498 17.6965 18.3627 17.5003L18.3646 17.4985ZM25.4163 24.4001C25.0092 24.6351 24.4875 24.4944 24.2525 24.0892C24.0175 23.6821 24.1581 23.1604 24.5633 22.9254C24.7595 22.8125 24.9908 22.781 25.2091 22.8402C25.4293 22.8995 25.6125 23.0401 25.7272 23.2381C25.9622 23.6451 25.8216 24.1669 25.4164 24.4019L25.4163 24.4001ZM39.2882 17.4819L39.6305 19.0232C39.7026 19.347 39.4991 19.669 39.1734 19.7411C39.129 19.7504 39.0846 19.7559 39.0421 19.7559C38.7664 19.7559 38.5184 19.5654 38.4555 19.2841L38.1132 17.7428C38.041 17.419 38.2446 17.097 38.5702 17.0249C38.894 16.9527 39.216 17.1562 39.2882 17.4819ZM6.56322 9.48659C6.33932 9.24235 6.35413 8.86118 6.60022 8.63543L7.76406 7.56779C8.00831 7.3439 8.38947 7.3587 8.61523 7.60479C8.83912 7.84904 8.82432 8.2302 8.57822 8.45596L7.41438 9.52359C7.29966 9.62906 7.15348 9.68272 7.0073 9.68272C6.84448 9.68272 6.68165 9.61796 6.56323 9.48844L6.56322 9.48659ZM13.7424 4.7128C13.6499 4.39454 13.8312 4.05964 14.1513 3.96712L15.6667 3.52305C15.985 3.43053 16.3199 3.61186 16.4124 3.93197C16.5049 4.25023 16.3236 4.58513 16.0035 4.67764L14.488 5.12172C14.4325 5.13837 14.3752 5.14577 14.3197 5.14577C14.0588 5.14577 13.8183 4.97554 13.7424 4.7128ZM9.87891 6.68711C9.71608 6.39847 9.81785 6.03026 10.1084 5.8674L11.485 5.09212C11.7755 4.9293 12.1418 5.03106 12.3047 5.32157C12.4675 5.61022 12.3657 5.97843 12.0752 6.14128L10.6986 6.91656C10.6061 6.96836 10.5043 6.99427 10.4044 6.99427C10.1935 6.99427 9.98994 6.88325 9.87891 6.68711ZM24.2524 3.90791C24.3431 3.58781 24.6761 3.40278 24.9962 3.49529L26.5153 3.92827C26.8354 4.01894 27.0205 4.35199 26.9279 4.67209C26.8521 4.93669 26.6115 5.10877 26.3488 5.10877C26.2933 5.10877 26.2377 5.10137 26.1822 5.08472L24.6631 4.65174C24.343 4.56108 24.158 4.22802 24.2505 3.90792L24.2524 3.90791ZM28.3712 5.26976C28.5322 4.97926 28.8986 4.87378 29.1891 5.03661L30.5694 5.8045C30.8599 5.96548 30.9654 6.33186 30.8026 6.62237C30.6934 6.82035 30.488 6.93137 30.2752 6.93137C30.1753 6.93137 30.0754 6.90731 29.9829 6.8555L28.6025 6.08761C28.312 5.92664 28.2065 5.56026 28.3694 5.26975L28.3712 5.26976ZM32.1163 8.382C31.8702 8.15811 31.8517 7.77881 32.0737 7.53269C32.2976 7.2866 32.6769 7.26809 32.923 7.49013L34.0943 8.55038C34.3404 8.77427 34.3589 9.15357 34.1368 9.39969C34.0184 9.53107 33.8556 9.59768 33.6909 9.59768C33.5466 9.59768 33.4023 9.54587 33.2875 9.44225L32.1163 8.382ZM1.12688 19.1455L1.45994 17.6005C1.53026 17.2749 1.85036 17.0695 2.17601 17.1398C2.50167 17.2101 2.70706 17.5302 2.63674 17.8558L2.30368 19.4009C2.24262 19.6821 1.99283 19.8764 1.71712 19.8764C1.67456 19.8764 1.632 19.8727 1.58945 19.8634C1.26379 19.7931 1.0584 19.473 1.12871 19.1474L1.12688 19.1455ZM34.5567 35.1362C34.788 35.3749 34.7824 35.756 34.5437 35.9873L33.4095 37.0864C33.2929 37.1993 33.1412 37.2548 32.9913 37.2548C32.834 37.2548 32.6768 37.1937 32.5583 37.0716C32.327 36.8329 32.3326 36.4517 32.5713 36.2204L33.7055 35.1214C33.9442 34.8901 34.3254 34.8956 34.5567 35.1362ZM39.5564 26.3602L39.1826 27.8941C39.116 28.1698 38.8699 28.353 38.5979 28.353C38.5498 28.353 38.5036 28.3475 38.4555 28.3364C38.1316 28.2587 37.9355 27.9312 38.0132 27.6092L38.387 26.0752C38.4647 25.7514 38.7922 25.5553 39.1142 25.633C39.438 25.7107 39.6341 26.0382 39.5564 26.3602ZM31.3167 38.0228C31.4869 38.3077 31.3944 38.6778 31.1094 38.848L29.755 39.6603C29.6588 39.7177 29.5514 39.7454 29.446 39.7454C29.2406 39.7454 29.0426 39.6418 28.9298 39.4531C28.7595 39.1681 28.852 38.7981 29.137 38.6278L30.4915 37.8156C30.7764 37.6453 31.1464 37.7378 31.3167 38.0228ZM16.0347 40.9778C15.9533 41.235 15.7164 41.3996 15.4611 41.3996C15.4019 41.3996 15.3408 41.3904 15.2798 41.3719L13.7736 40.8982C13.4572 40.7983 13.2814 40.4597 13.3795 40.1433C13.4794 39.8268 13.818 39.651 14.1344 39.7491L15.6406 40.2228C15.957 40.3227 16.1328 40.6613 16.0347 40.9778ZM27.5068 40.0989C27.6086 40.4153 27.4347 40.7539 27.1183 40.8557L25.6139 41.3386C25.5529 41.3571 25.49 41.3682 25.4289 41.3682C25.1754 41.3682 24.9385 41.2054 24.8553 40.95C24.7536 40.6336 24.9275 40.295 25.2439 40.1932L26.7482 39.7103C27.0646 39.6085 27.4032 39.7824 27.505 40.0989H27.5068ZM8.29325 36.2964C8.53379 36.5259 8.5412 36.9071 8.31176 37.1476C8.19333 37.2716 8.03421 37.3345 7.87693 37.3345C7.72705 37.3345 7.57718 37.279 7.4606 37.168L6.31893 36.0763C6.07839 35.8468 6.07098 35.4656 6.30042 35.2251C6.52987 34.9846 6.91105 34.9753 7.15159 35.2066L8.29326 36.2983L8.29325 36.2964ZM39.9339 21.9083L39.9173 23.4885C39.9136 23.8178 39.6453 24.0843 39.3159 24.0843H39.3104C38.9773 24.0806 38.7109 23.8086 38.7146 23.4774L38.7312 21.8972C38.7349 21.5679 39.0032 21.3014 39.3326 21.3014H39.3381C39.6712 21.3051 39.9376 21.5771 39.9339 21.9083ZM1.63041 28.0089L1.24739 26.4768C1.16598 26.1548 1.36212 25.8273 1.68592 25.7477C2.00788 25.6663 2.33539 25.8625 2.41497 26.1863L2.79799 27.7184C2.8794 28.0403 2.68326 28.3678 2.35946 28.4474C2.3095 28.4604 2.26139 28.4659 2.21328 28.4659C1.94314 28.4659 1.69891 28.2827 1.63042 28.0107L1.63041 28.0089ZM1.46943 24.1972C1.14192 24.1972 0.873634 23.9344 0.868092 23.6051L0.842188 22.0249C0.836637 21.6919 1.10124 21.418 1.43429 21.4143C1.76735 21.4069 2.03933 21.6733 2.04492 22.0064L2.07082 23.5866C2.07637 23.9196 1.81177 24.1934 1.47872 24.1972H1.46943ZM11.9535 39.5048C11.8406 39.6953 11.6408 39.8008 11.4354 39.8008C11.3318 39.8008 11.2263 39.7731 11.1301 39.7175L9.77007 38.9145C9.48327 38.7461 9.3889 38.3761 9.55914 38.0911C9.72752 37.8043 10.0976 37.7099 10.3825 37.8802L11.7425 38.6832C12.0293 38.8516 12.1237 39.2216 11.9535 39.5066L11.9535 39.5048Z" fill="black"/>
</svg>
